# vtk DataFile Version 3.0
# Dislocation lines converted from MoDELib file
ASCII
DATASET UNSTRUCTURED_GRID
POINTS 28 double
3.974026984800001e+02 1.231602495183874e+02 2.074812399700000e+02
3.955235375100000e+02 1.231602495183874e+02 1.762073884900000e+02
3.860085142800000e+02 1.231602495183874e+02 1.505100773600000e+02
3.701694251800001e+02 1.231602495183874e+02 1.278472148000000e+02
3.487965401999999e+02 1.231602495183874e+02 1.092155680100000e+02
3.240500132700001e+02 1.231602495183874e+02 9.503664829000002e+01
2.955642458200001e+02 1.231602495183874e+02 8.515001445999998e+01
2.624995171200001e+02 1.231602495183874e+02 7.973941438000000e+01
2.276877992600000e+02 1.231602495183874e+02 8.076288366000000e+01
1.926106935100000e+02 1.231602495183874e+02 8.964405108000000e+01
1.597139229000000e+02 1.231602495183874e+02 1.042424410900000e+02
1.334065864800000e+02 1.231602495183874e+02 1.260069724400000e+02
1.148592168500000e+02 1.231602495183874e+02 1.559676977600000e+02
1.048228314200000e+02 1.231602495183874e+02 1.875425971600000e+02
1.023615435500000e+02 1.231602495183874e+02 2.166542091600000e+02
1.051194467700000e+02 1.231602495183874e+02 2.440574086000000e+02
1.135641441700000e+02 1.231602495183874e+02 2.702415097600000e+02
1.278932412300000e+02 1.231602495183874e+02 2.938301743599999e+02
1.473941784300000e+02 1.231602495183874e+02 3.134036435300001e+02
1.720824006400000e+02 1.231602495183874e+02 3.293530792300002e+02
2.004106786000000e+02 1.231602495183874e+02 3.409505822200001e+02
2.310183270900000e+02 1.231602495183874e+02 3.476577252000001e+02
2.634124475100000e+02 1.231602495183874e+02 3.490683450299999e+02
2.967049555200001e+02 1.231602495183874e+02 3.428397198500002e+02
3.302004846800000e+02 1.231602495183874e+02 3.284451223799998e+02
3.602473960000000e+02 1.231602495183874e+02 3.061328295000000e+02
3.799288624200000e+02 1.231602495183874e+02 2.801063333200000e+02
3.955253278000000e+02 1.231602495183874e+02 2.309373175700000e+02


CELLS 1 30
29 0 1 2 3 4 5 6 7 8 9 10 11 12 13 14 15 16 17 18 19 20 21 22 23 24 25 26 27 0

CELL_TYPES 1
4


POINT_DATA 28
VECTORS PK_force double
0.000000000000000e+00 0.000000000000000e+00 0.000000000000000e+00
0.000000000000000e+00 0.000000000000000e+00 0.000000000000000e+00
0.000000000000000e+00 0.000000000000000e+00 0.000000000000000e+00
0.000000000000000e+00 0.000000000000000e+00 0.000000000000000e+00
0.000000000000000e+00 0.000000000000000e+00 0.000000000000000e+00
0.000000000000000e+00 0.000000000000000e+00 0.000000000000000e+00
0.000000000000000e+00 0.000000000000000e+00 0.000000000000000e+00
0.000000000000000e+00 0.000000000000000e+00 0.000000000000000e+00
0.000000000000000e+00 0.000000000000000e+00 0.000000000000000e+00
0.000000000000000e+00 0.000000000000000e+00 0.000000000000000e+00
0.000000000000000e+00 0.000000000000000e+00 0.000000000000000e+00
0.000000000000000e+00 0.000000000000000e+00 0.000000000000000e+00
0.000000000000000e+00 0.000000000000000e+00 0.000000000000000e+00
0.000000000000000e+00 0.000000000000000e+00 0.000000000000000e+00
0.000000000000000e+00 0.000000000000000e+00 0.000000000000000e+00
0.000000000000000e+00 0.000000000000000e+00 0.000000000000000e+00
0.000000000000000e+00 0.000000000000000e+00 0.000000000000000e+00
0.000000000000000e+00 0.000000000000000e+00 0.000000000000000e+00
0.000000000000000e+00 0.000000000000000e+00 0.000000000000000e+00
0.000000000000000e+00 0.000000000000000e+00 0.000000000000000e+00
0.000000000000000e+00 0.000000000000000e+00 0.000000000000000e+00
0.000000000000000e+00 0.000000000000000e+00 0.000000000000000e+00
0.000000000000000e+00 0.000000000000000e+00 0.000000000000000e+00
0.000000000000000e+00 0.000000000000000e+00 0.000000000000000e+00
0.000000000000000e+00 0.000000000000000e+00 0.000000000000000e+00
0.000000000000000e+00 0.000000000000000e+00 0.000000000000000e+00
0.000000000000000e+00 0.000000000000000e+00 0.000000000000000e+00
0.000000000000000e+00 0.000000000000000e+00 0.000000000000000e+00


VECTORS velocity double
0.000000000000000e+00 0.000000000000000e+00 0.000000000000000e+00
0.000000000000000e+00 0.000000000000000e+00 0.000000000000000e+00
0.000000000000000e+00 0.000000000000000e+00 0.000000000000000e+00
0.000000000000000e+00 0.000000000000000e+00 0.000000000000000e+00
0.000000000000000e+00 0.000000000000000e+00 0.000000000000000e+00
0.000000000000000e+00 0.000000000000000e+00 0.000000000000000e+00
0.000000000000000e+00 0.000000000000000e+00 0.000000000000000e+00
0.000000000000000e+00 0.000000000000000e+00 0.000000000000000e+00
0.000000000000000e+00 0.000000000000000e+00 0.000000000000000e+00
0.000000000000000e+00 0.000000000000000e+00 0.000000000000000e+00
0.000000000000000e+00 0.000000000000000e+00 0.000000000000000e+00
0.000000000000000e+00 0.000000000000000e+00 0.000000000000000e+00
0.000000000000000e+00 0.000000000000000e+00 0.000000000000000e+00
0.000000000000000e+00 0.000000000000000e+00 0.000000000000000e+00
0.000000000000000e+00 0.000000000000000e+00 0.000000000000000e+00
0.000000000000000e+00 0.000000000000000e+00 0.000000000000000e+00
0.000000000000000e+00 0.000000000000000e+00 0.000000000000000e+00
0.000000000000000e+00 0.000000000000000e+00 0.000000000000000e+00
0.000000000000000e+00 0.000000000000000e+00 0.000000000000000e+00
0.000000000000000e+00 0.000000000000000e+00 0.000000000000000e+00
0.000000000000000e+00 0.000000000000000e+00 0.000000000000000e+00
0.000000000000000e+00 0.000000000000000e+00 0.000000000000000e+00
0.000000000000000e+00 0.000000000000000e+00 0.000000000000000e+00
0.000000000000000e+00 0.000000000000000e+00 0.000000000000000e+00
0.000000000000000e+00 0.000000000000000e+00 0.000000000000000e+00
0.000000000000000e+00 0.000000000000000e+00 0.000000000000000e+00
0.000000000000000e+00 0.000000000000000e+00 0.000000000000000e+00
0.000000000000000e+00 0.000000000000000e+00 0.000000000000000e+00




CELL_DATA 1
SCALARS dislocation_index int
LOOKUP_TABLE default
0


VECTORS burgers_vector_world double
-2.480271560000000e+00 -1.581061680000000e-06  1.483537390000000e-05
 

VECTORS burgers_vector_local double
-5.000000000000000e-01 -5.000000000000000e-01 -5.000000000000000e-01

