# vtk DataFile Version 3.0
# Dislocation lines converted from MoDELib file
ASCII
DATASET UNSTRUCTURED_GRID
POINTS 58 double
3.974026984800001e+02 1.231602495183874e+02 2.074812399700000e+02
3.955235375100000e+02 1.231602495183874e+02 1.762073884900000e+02
3.860085142800000e+02 1.231602495183874e+02 1.505100773600000e+02
3.701694251800001e+02 1.231602495183874e+02 1.278472148000000e+02
3.487965401999999e+02 1.231602495183874e+02 1.092155680100000e+02
3.240500132700001e+02 1.231602495183874e+02 9.503664829000002e+01
2.955642458200001e+02 1.231602495183874e+02 8.515001445999998e+01
2.624995171200001e+02 1.231602495183874e+02 7.973941438000001e+01
2.276877992600000e+02 1.231602495183874e+02 8.076288366000000e+01
1.926106935100000e+02 1.231602495183874e+02 8.964405108000000e+01
1.597139229000000e+02 1.231602495183874e+02 1.042424410900000e+02
1.334065864800000e+02 1.231602495183874e+02 1.260069724400000e+02
1.148592168500000e+02 1.231602495183874e+02 1.559676977600000e+02
1.048228314200000e+02 1.231602495183874e+02 1.875425971600000e+02
1.023615435500000e+02 1.231602495183874e+02 2.166542091600000e+02
1.051194467700000e+02 1.231602495183874e+02 2.440574086000000e+02
1.135641441700000e+02 1.231602495183874e+02 2.702415097600000e+02
1.278932412300000e+02 1.231602495183874e+02 2.938301743599999e+02
1.473941784300000e+02 1.231602495183874e+02 3.134036435300001e+02
1.720824006400000e+02 1.231602495183874e+02 3.293530792300002e+02
2.004106786000000e+02 1.231602495183874e+02 3.409505822200001e+02
2.310183270900000e+02 1.231602495183874e+02 3.476577252000001e+02
2.634124475100000e+02 1.231602495183874e+02 3.490683450299999e+02
2.967049555200001e+02 1.231602495183874e+02 3.428397198500002e+02
3.302004846800000e+02 1.231602495183874e+02 3.284451223799998e+02
3.602473960000000e+02 1.231602495183874e+02 3.061328295000000e+02
3.799288624200000e+02 1.231602495183874e+02 2.801063333200000e+02
3.955253278000000e+02 1.231602495183874e+02 2.309373175700000e+02
3.964631179950000e+02 1.231602495183874e+02 1.918443142300000e+02
3.964640131400001e+02 1.231602495183874e+02 2.192092787700000e+02
3.907660258950000e+02 1.231602495183874e+02 1.633587329250000e+02
3.780889697300000e+02 1.231602495183874e+02 1.391786460800000e+02
3.594829826900000e+02 1.231602495183874e+02 1.185313914050000e+02
3.364232767349999e+02 1.231602495183874e+02 1.021261081500000e+02
3.098071295450001e+02 1.231602495183874e+02 9.009333137500001e+01
2.790318814700001e+02 1.231602495183874e+02 8.244471442000000e+01
2.450936581900001e+02 1.231602495183874e+02 8.025114902000000e+01
2.101492463850000e+02 1.231602495183874e+02 8.520346737000000e+01
1.761623082050000e+02 1.231602495183874e+02 9.694324608500000e+01
1.465602546900000e+02 1.231602495183874e+02 1.151247067650000e+02
1.241329016650000e+02 1.231602495183874e+02 1.409873351000000e+02
1.098410241350000e+02 1.231602495183874e+02 1.717551474600000e+02
1.035921874850000e+02 1.231602495183874e+02 2.020984031600000e+02
1.037404951600000e+02 1.231602495183874e+02 2.303558088800000e+02
1.093417954700000e+02 1.231602495183874e+02 2.571494591800000e+02
1.207286927000000e+02 1.231602495183874e+02 2.820358420599999e+02
1.376437098300000e+02 1.231602495183874e+02 3.036169089450000e+02
1.597382895350000e+02 1.231602495183874e+02 3.213783613800002e+02
1.862465396200000e+02 1.231602495183874e+02 3.351518307250002e+02
2.157145028450000e+02 1.231602495183874e+02 3.443041537100002e+02
2.472153873000000e+02 1.231602495183874e+02 3.483630351150001e+02
2.800587015150001e+02 1.231602495183874e+02 3.459540324400001e+02
3.134527201000001e+02 1.231602495183874e+02 3.356424211150001e+02
3.377122125100000e+02 1.231602495183874e+02 3.228670491599999e+02
3.527356681700000e+02 1.231602495183874e+02 3.117109027200000e+02
3.700881292100000e+02 1.231602495183874e+02 2.931195814100000e+02
3.838279787650001e+02 1.231602495183874e+02 2.678140793825000e+02
3.916262114550000e+02 1.231602495183874e+02 2.432295715075000e+02

CELLS 28 114
3 0 28 1
3 0 29 27
3 1 30 2
3 2 31 3
3 3 32 4
3 4 33 5
3 5 34 6
3 6 35 7
3 7 36 8
3 8 37 9
3 9 38 10
3 10 39 11
3 11 40 12
3 12 41 13
3 13 42 14
3 14 43 15
3 15 44 16
3 16 45 17
3 17 46 18
3 18 47 19
3 19 48 20
3 20 49 21
3 21 50 22
3 22 51 23
3 23 52 24
4 24 53 54 25
3 25 55 26
4 26 56 57 27

CELL_TYPES 28
4
4
4
4
4
4
4
4
4
4
4
4
4
4
4
4
4
4
4
4
4
4
4
4
4
4
4
4

POINT_DATA 58
VECTORS PK_force double
0.000000000000000e+00 0.000000000000000e+00 0.000000000000000e+00
0.000000000000000e+00 0.000000000000000e+00 0.000000000000000e+00
0.000000000000000e+00 0.000000000000000e+00 0.000000000000000e+00
0.000000000000000e+00 0.000000000000000e+00 0.000000000000000e+00
0.000000000000000e+00 0.000000000000000e+00 0.000000000000000e+00
0.000000000000000e+00 0.000000000000000e+00 0.000000000000000e+00
0.000000000000000e+00 0.000000000000000e+00 0.000000000000000e+00
0.000000000000000e+00 0.000000000000000e+00 0.000000000000000e+00
0.000000000000000e+00 0.000000000000000e+00 0.000000000000000e+00
0.000000000000000e+00 0.000000000000000e+00 0.000000000000000e+00
0.000000000000000e+00 0.000000000000000e+00 0.000000000000000e+00
0.000000000000000e+00 0.000000000000000e+00 0.000000000000000e+00
0.000000000000000e+00 0.000000000000000e+00 0.000000000000000e+00
0.000000000000000e+00 0.000000000000000e+00 0.000000000000000e+00
0.000000000000000e+00 0.000000000000000e+00 0.000000000000000e+00
0.000000000000000e+00 0.000000000000000e+00 0.000000000000000e+00
0.000000000000000e+00 0.000000000000000e+00 0.000000000000000e+00
0.000000000000000e+00 0.000000000000000e+00 0.000000000000000e+00
0.000000000000000e+00 0.000000000000000e+00 0.000000000000000e+00
0.000000000000000e+00 0.000000000000000e+00 0.000000000000000e+00
0.000000000000000e+00 0.000000000000000e+00 0.000000000000000e+00
0.000000000000000e+00 0.000000000000000e+00 0.000000000000000e+00
0.000000000000000e+00 0.000000000000000e+00 0.000000000000000e+00
0.000000000000000e+00 0.000000000000000e+00 0.000000000000000e+00
0.000000000000000e+00 0.000000000000000e+00 0.000000000000000e+00
0.000000000000000e+00 0.000000000000000e+00 0.000000000000000e+00
0.000000000000000e+00 0.000000000000000e+00 0.000000000000000e+00
0.000000000000000e+00 0.000000000000000e+00 0.000000000000000e+00
 9.795432955444106e-03 -5.243879827828159e-09 -5.885810165049455e-04
 9.537779537808991e-03 -5.095207859167471e-09  7.633820096411397e-04
 7.820585441080979e-03 -4.294324614269757e-09 -2.895752468716945e-03
 6.093342808936877e-03 -4.078544801035726e-09 -4.258641176156649e-03
 4.547057972549347e-03 -3.816933142391340e-09 -5.216057825701731e-03
 3.353331941258046e-03 -3.183925734382741e-09 -5.852584035194102e-03
 2.260157430683747e-03 -2.311600538892131e-09 -6.512056588510917e-03
 1.160801903803878e-03 -1.179676190168748e-09 -7.093778777994435e-03
-2.055058986184282e-04  1.297692615413878e-10 -6.989963940364309e-03
-1.781436814488740e-03  1.522992236862644e-09 -7.035972251580942e-03
-2.806741462915079e-03  2.846904413926180e-09 -6.324857056418173e-03
-4.105078010474768e-03  3.563260834028696e-09 -4.961911033839194e-03
-6.770450508936218e-03  4.270559661167112e-09 -4.191288655720090e-03
-8.832626915790703e-03  5.037988246314190e-09 -2.807535408529841e-03
-9.715880186047143e-03  5.269077824625563e-09 -8.214446540538957e-04
-9.620468189207655e-03  5.165782503675841e-09  9.682197969261432e-04
-8.542715844198853e-03  4.746198707834396e-09  2.755131819787278e-03
-6.774010277377271e-03  4.314009357386695e-09  4.114919279914508e-03
-4.967112143347543e-03  3.954612737531158e-09  4.948705879959076e-03
-3.730623740873607e-03  3.489288743508034e-09  5.774653701170660e-03
-2.617261889341557e-03  2.618033313808075e-09  6.392972897641229e-03
-1.450858454207014e-03  1.480959665387922e-09  6.620906354245232e-03
-2.718046754144527e-04  1.916615895353220e-10  6.241847164516133e-03
 1.109284098206096e-03 -1.090968010259744e-09  5.929213696062174e-03
 2.591749979694987e-03 -2.487593237441408e-09  6.030876320176848e-03
 3.277356208812838e-03 -2.788856178715205e-09  4.413460862129533e-03
 3.255832981754603e-03 -3.638376794825661e-09  4.384476548495020e-03
 5.757560267893346e-03 -4.038304226652647e-09  4.353917956914511e-03
 8.386731211769933e-03 -4.533979987307540e-09  2.660280280183070e-03
 9.480383529591196e-03 -5.604701121042353e-09  3.007187987251747e-03

TENSORS stress double
0.000000000000000e+00 0.000000000000000e+00 0.000000000000000e+00
0.000000000000000e+00 0.000000000000000e+00 0.000000000000000e+00
0.000000000000000e+00 0.000000000000000e+00 0.000000000000000e+00

0.000000000000000e+00 0.000000000000000e+00 0.000000000000000e+00
0.000000000000000e+00 0.000000000000000e+00 0.000000000000000e+00
0.000000000000000e+00 0.000000000000000e+00 0.000000000000000e+00

0.000000000000000e+00 0.000000000000000e+00 0.000000000000000e+00
0.000000000000000e+00 0.000000000000000e+00 0.000000000000000e+00
0.000000000000000e+00 0.000000000000000e+00 0.000000000000000e+00

0.000000000000000e+00 0.000000000000000e+00 0.000000000000000e+00
0.000000000000000e+00 0.000000000000000e+00 0.000000000000000e+00
0.000000000000000e+00 0.000000000000000e+00 0.000000000000000e+00

0.000000000000000e+00 0.000000000000000e+00 0.000000000000000e+00
0.000000000000000e+00 0.000000000000000e+00 0.000000000000000e+00
0.000000000000000e+00 0.000000000000000e+00 0.000000000000000e+00

0.000000000000000e+00 0.000000000000000e+00 0.000000000000000e+00
0.000000000000000e+00 0.000000000000000e+00 0.000000000000000e+00
0.000000000000000e+00 0.000000000000000e+00 0.000000000000000e+00

0.000000000000000e+00 0.000000000000000e+00 0.000000000000000e+00
0.000000000000000e+00 0.000000000000000e+00 0.000000000000000e+00
0.000000000000000e+00 0.000000000000000e+00 0.000000000000000e+00

0.000000000000000e+00 0.000000000000000e+00 0.000000000000000e+00
0.000000000000000e+00 0.000000000000000e+00 0.000000000000000e+00
0.000000000000000e+00 0.000000000000000e+00 0.000000000000000e+00

0.000000000000000e+00 0.000000000000000e+00 0.000000000000000e+00
0.000000000000000e+00 0.000000000000000e+00 0.000000000000000e+00
0.000000000000000e+00 0.000000000000000e+00 0.000000000000000e+00

0.000000000000000e+00 0.000000000000000e+00 0.000000000000000e+00
0.000000000000000e+00 0.000000000000000e+00 0.000000000000000e+00
0.000000000000000e+00 0.000000000000000e+00 0.000000000000000e+00

0.000000000000000e+00 0.000000000000000e+00 0.000000000000000e+00
0.000000000000000e+00 0.000000000000000e+00 0.000000000000000e+00
0.000000000000000e+00 0.000000000000000e+00 0.000000000000000e+00

0.000000000000000e+00 0.000000000000000e+00 0.000000000000000e+00
0.000000000000000e+00 0.000000000000000e+00 0.000000000000000e+00
0.000000000000000e+00 0.000000000000000e+00 0.000000000000000e+00

0.000000000000000e+00 0.000000000000000e+00 0.000000000000000e+00
0.000000000000000e+00 0.000000000000000e+00 0.000000000000000e+00
0.000000000000000e+00 0.000000000000000e+00 0.000000000000000e+00

0.000000000000000e+00 0.000000000000000e+00 0.000000000000000e+00
0.000000000000000e+00 0.000000000000000e+00 0.000000000000000e+00
0.000000000000000e+00 0.000000000000000e+00 0.000000000000000e+00

0.000000000000000e+00 0.000000000000000e+00 0.000000000000000e+00
0.000000000000000e+00 0.000000000000000e+00 0.000000000000000e+00
0.000000000000000e+00 0.000000000000000e+00 0.000000000000000e+00

0.000000000000000e+00 0.000000000000000e+00 0.000000000000000e+00
0.000000000000000e+00 0.000000000000000e+00 0.000000000000000e+00
0.000000000000000e+00 0.000000000000000e+00 0.000000000000000e+00

0.000000000000000e+00 0.000000000000000e+00 0.000000000000000e+00
0.000000000000000e+00 0.000000000000000e+00 0.000000000000000e+00
0.000000000000000e+00 0.000000000000000e+00 0.000000000000000e+00

0.000000000000000e+00 0.000000000000000e+00 0.000000000000000e+00
0.000000000000000e+00 0.000000000000000e+00 0.000000000000000e+00
0.000000000000000e+00 0.000000000000000e+00 0.000000000000000e+00

0.000000000000000e+00 0.000000000000000e+00 0.000000000000000e+00
0.000000000000000e+00 0.000000000000000e+00 0.000000000000000e+00
0.000000000000000e+00 0.000000000000000e+00 0.000000000000000e+00

0.000000000000000e+00 0.000000000000000e+00 0.000000000000000e+00
0.000000000000000e+00 0.000000000000000e+00 0.000000000000000e+00
0.000000000000000e+00 0.000000000000000e+00 0.000000000000000e+00

0.000000000000000e+00 0.000000000000000e+00 0.000000000000000e+00
0.000000000000000e+00 0.000000000000000e+00 0.000000000000000e+00
0.000000000000000e+00 0.000000000000000e+00 0.000000000000000e+00

0.000000000000000e+00 0.000000000000000e+00 0.000000000000000e+00
0.000000000000000e+00 0.000000000000000e+00 0.000000000000000e+00
0.000000000000000e+00 0.000000000000000e+00 0.000000000000000e+00

0.000000000000000e+00 0.000000000000000e+00 0.000000000000000e+00
0.000000000000000e+00 0.000000000000000e+00 0.000000000000000e+00
0.000000000000000e+00 0.000000000000000e+00 0.000000000000000e+00

0.000000000000000e+00 0.000000000000000e+00 0.000000000000000e+00
0.000000000000000e+00 0.000000000000000e+00 0.000000000000000e+00
0.000000000000000e+00 0.000000000000000e+00 0.000000000000000e+00

0.000000000000000e+00 0.000000000000000e+00 0.000000000000000e+00
0.000000000000000e+00 0.000000000000000e+00 0.000000000000000e+00
0.000000000000000e+00 0.000000000000000e+00 0.000000000000000e+00

0.000000000000000e+00 0.000000000000000e+00 0.000000000000000e+00
0.000000000000000e+00 0.000000000000000e+00 0.000000000000000e+00
0.000000000000000e+00 0.000000000000000e+00 0.000000000000000e+00

0.000000000000000e+00 0.000000000000000e+00 0.000000000000000e+00
0.000000000000000e+00 0.000000000000000e+00 0.000000000000000e+00
0.000000000000000e+00 0.000000000000000e+00 0.000000000000000e+00

0.000000000000000e+00 0.000000000000000e+00 0.000000000000000e+00
0.000000000000000e+00 0.000000000000000e+00 0.000000000000000e+00
0.000000000000000e+00 0.000000000000000e+00 0.000000000000000e+00

-6.777380891851866e-08  6.338949446187666e-01 -3.520472905752713e-08
 6.338949446187666e-01 -3.413144214913998e-07 -2.422240691772429e-02
-3.520472905752713e-08 -2.422240691772429e-02 -4.619812993660704e-07

-7.029542181155356e-08  6.180808246553275e-01  4.797417832234520e-08
 6.180808246553275e-01 -3.643110095558729e-07  5.181757253198685e-02
 4.797417832234520e-08  5.181757253198685e-02 -4.867918387785976e-07

-1.309283572806940e-07  5.387031998016624e-01 -1.442275387387301e-07
 5.387031998016624e-01 -4.171061040967484e-07 -1.268094153392897e-01
-1.442275387387301e-07 -1.268094153392897e-01 -5.108891447325877e-07

-2.070262153135311e-07  4.802138714376372e-01 -2.051776863983030e-07
 4.802138714376372e-01 -3.976116876127150e-07 -1.771921994111585e-01
-2.051776863983030e-07 -1.771921994111585e-01 -4.059979998628554e-07

-2.757556742008854e-07  4.469930892529650e-01 -2.090242119796701e-07
 4.469930892529650e-01 -3.540312728319950e-07 -1.726658722003175e-01
-2.090242119796701e-07 -1.726658722003175e-01 -2.710754199564552e-07

-3.234648142631258e-07  4.357169367759279e-01 -1.734478750579802e-07
 4.357169367759279e-01 -3.094259937375464e-07 -1.408490098878724e-01
-1.734478750579802e-07 -1.408490098878724e-01 -1.545187577515567e-07

-3.446307652588012e-07  4.452734811878697e-01 -1.165659030783207e-07
 4.452734811878697e-01 -2.663697489106764e-07 -9.819116409182815e-02
-1.165659030783207e-07 -9.819116409182815e-02 -6.730865761278667e-08

-3.462696260313972e-07  4.643298036502957e-01 -5.237379058111981e-08
 4.643298036502957e-01 -2.307925602559007e-07 -5.187934958468837e-02
-5.237379058111981e-08 -5.187934958468837e-02 -1.147535744067151e-08

-3.544036351279534e-07  4.517245471120803e-01  1.199520774801238e-08
 4.517245471120803e-01 -2.273860478175833e-07 -2.596674699944521e-03
 1.199520774801238e-08 -2.596674699944521e-03  2.134216803276192e-09

-3.250843307364666e-07  4.688434208814375e-01  7.496550498563287e-08
 4.688434208814375e-01 -2.264708006707931e-07  5.201517132218249e-02
 7.496550498563287e-08  5.201517132218249e-02 -2.658619129492735e-08

-3.120652289933798e-07  4.469883731116086e-01  1.389368688550686e-07
 4.469883731116086e-01 -2.659351129691456e-07  1.165533917571711e-01
 1.389368688550686e-07  1.165533917571711e-01 -1.010925011487182e-07

-2.956542005047756e-07  4.159977803902768e-01  2.034470612250303e-07
 4.159977803902768e-01 -3.386656908498177e-07  1.890347262431372e-01
 2.034470612250303e-07  1.890347262431372e-01 -2.288783959145227e-07

-1.913418008768963e-07  5.143715211890830e-01  1.873270584872024e-07
 5.143715211890830e-01 -3.369706129010376e-07  1.822855280586471e-01
 1.873270584872024e-07  1.822855280586471e-01 -3.317704687331721e-07

-1.061141400524404e-07  5.986901680015301e-01  1.233998234726501e-07
 5.986901680015301e-01 -3.272139681856898e-07  1.319456914828247e-01
 1.233998234726501e-07  1.319456914828247e-01 -4.018403947626390e-07

-6.737093135259484e-08  6.298545374251255e-01  4.477367503975437e-08
 6.298545374251255e-01 -3.386861628765540e-07  6.793894625118124e-02
 4.477367503975437e-08  6.793894625118124e-02 -4.567281110704094e-07

-6.727126601344225e-08  6.245909728096221e-01 -4.077907917986228e-08
 6.245909728096221e-01 -3.534737729765563e-07 -6.194086612127959e-03
-4.077907917986228e-08 -6.194086612127959e-03 -4.787613480695511e-07

-1.063113007502290e-07  5.798211744758336e-01 -1.275669482741863e-07
 5.798211744758336e-01 -3.751484817354096e-07 -8.609194976762942e-02
-1.275669482741863e-07 -8.609194976762942e-02 -4.725249234098202e-07

-1.779605125889765e-07  5.119865811417380e-01 -1.957552911562103e-07
 5.119865811417380e-01 -3.830605482598119e-07 -1.516871633195807e-01
-1.957552911562103e-07 -1.516871633195807e-01 -4.126265224479254e-07

-2.566020273045670e-07  4.529230764418202e-01 -2.178450308870533e-07
 4.529230764418202e-01 -3.656860261388506e-07 -1.754805301554489e-01
-2.178450308870533e-07 -1.754805301554489e-01 -3.070474039242734e-07

-3.039379953244770e-07  4.440954615339411e-01 -1.858675263743956e-07
 4.440954615339411e-01 -3.158214524392484e-07 -1.505086480102781e-01
-1.858675263743956e-07 -1.505086480102781e-01 -1.844497446503957e-07

-3.351936629780006e-07  4.462327758410725e-01 -1.327212712185271e-07
 4.462327758410725e-01 -2.740469861743470e-07 -1.110544008128617e-01
-1.327212712185271e-07 -1.110544008128617e-01 -8.925136588525729e-08

-3.611312592415692e-07  4.378373682351702e-01 -7.258551790760836e-08
 4.378373682351702e-01 -2.515092475402588e-07 -6.796587033671010e-02
-7.258551790760836e-08 -6.796587033671010e-02 -2.845352965431059e-08

-3.896720255039812e-07  4.035854881495213e-01 -6.931026022848613e-09
 4.035854881495213e-01 -2.557764669839728e-07 -1.761236986707489e-02
-6.931026022848613e-09 -1.761236986707489e-02 -6.162031548496054e-09

-3.854348231440044e-07  3.896540031141144e-01  6.738441799774083e-08
 3.896540031141144e-01 -2.668175962187680e-07  4.698574272681903e-02
 6.738441799774083e-08  4.698574272681903e-02 -2.766885505926073e-08

-3.315770491511831e-07  4.240266964246170e-01  1.320749959422130e-07
 4.240266964246170e-01 -2.715770197354839e-07  1.084938712802838e-01
 1.320749959422130e-07  1.084938712802838e-01 -9.021613605263207e-08

-3.490891862019233e-07  3.551056189149722e-01  2.013963181151968e-07
 3.551056189149722e-01 -3.577553486914498e-07  1.790350542615685e-01
 2.013963181151968e-07  1.790350542615685e-01 -1.920110854616946e-07

-3.289690463653800e-07  3.527737573776188e-01  2.346137817135765e-07
 3.527737573776188e-01 -3.967719423912037e-07  2.124446738406833e-01
 2.346137817135765e-07  2.124446738406833e-01 -2.692123991536478e-07

-2.281413425552809e-07  4.662904600544173e-01  2.173452606889667e-07
 4.662904600544173e-01 -3.623464864006102e-07  1.941604893689668e-01
 2.173452606889667e-07  1.941604893689668e-01 -3.316902174205900e-07

-1.361538602262694e-07  5.683587548210389e-01  1.640592101613353e-07
 5.683587548210389e-01 -3.367047754456363e-07  1.437829988656132e-01
 1.640592101613353e-07  1.437829988656132e-01 -3.815946682667931e-07

-7.932506554517906e-08  6.424738298548477e-01  9.922550572736692e-08
 6.424738298548477e-01 -2.950672694007959e-07  8.964144588613711e-02
 9.922550572736692e-08  8.964144588613711e-02 -3.770157239571990e-07


CELL_DATA 28
SCALARS dislocation_index int
LOOKUP_TABLE default
0
1
2
3
4
5
6
7
8
9
10
11
12
13
14
15
16
17
18
19
20
21
22
23
24
25
26
27

VECTORS burgers_vector_global double
-2.480271559999999e+00 -1.581061680000000e-06  1.483537390000000e-05
 2.480271559999999e+00  1.581061680000000e-06 -1.483537390000000e-05
-2.480271559999999e+00 -1.581061680000000e-06  1.483537390000000e-05
-2.480271559999999e+00 -1.581061680000000e-06  1.483537390000000e-05
-2.480271559999999e+00 -1.581061680000000e-06  1.483537390000000e-05
-2.480271559999999e+00 -1.581061680000000e-06  1.483537390000000e-05
-2.480271559999999e+00 -1.581061680000000e-06  1.483537390000000e-05
-2.480271559999999e+00 -1.581061680000000e-06  1.483537390000000e-05
-2.480271559999999e+00 -1.581061680000000e-06  1.483537390000000e-05
-2.480271559999999e+00 -1.581061680000000e-06  1.483537390000000e-05
-2.480271559999999e+00 -1.581061680000000e-06  1.483537390000000e-05
-2.480271559999999e+00 -1.581061680000000e-06  1.483537390000000e-05
-2.480271559999999e+00 -1.581061680000000e-06  1.483537390000000e-05
-2.480271559999999e+00 -1.581061680000000e-06  1.483537390000000e-05
-2.480271559999999e+00 -1.581061680000000e-06  1.483537390000000e-05
-2.480271559999999e+00 -1.581061680000000e-06  1.483537390000000e-05
-2.480271559999999e+00 -1.581061680000000e-06  1.483537390000000e-05
-2.480271559999999e+00 -1.581061680000000e-06  1.483537390000000e-05
-2.480271559999999e+00 -1.581061680000000e-06  1.483537390000000e-05
-2.480271559999999e+00 -1.581061680000000e-06  1.483537390000000e-05
-2.480271559999999e+00 -1.581061680000000e-06  1.483537390000000e-05
-2.480271559999999e+00 -1.581061680000000e-06  1.483537390000000e-05
-2.480271559999999e+00 -1.581061680000000e-06  1.483537390000000e-05
-2.480271559999999e+00 -1.581061680000000e-06  1.483537390000000e-05
-2.480271559999999e+00 -1.581061680000000e-06  1.483537390000000e-05
-2.480271559999999e+00 -1.581061680000000e-06  1.483537390000000e-05
-2.480271559999999e+00 -1.581061680000000e-06  1.483537390000000e-05
-2.480271559999999e+00 -1.581061680000000e-06  1.483537390000000e-05

VECTORS burgers_vector_local double
-5.015120650106114e-01 -5.015180368568252e-01  5.015112819270853e-01
 5.015120650106114e-01  5.015180368568252e-01 -5.015112819270853e-01
-5.015120650106114e-01 -5.015180368568252e-01  5.015112819270853e-01
-5.015120650106114e-01 -5.015180368568252e-01  5.015112819270853e-01
-5.015120650106114e-01 -5.015180368568252e-01  5.015112819270853e-01
-5.015120650106114e-01 -5.015180368568252e-01  5.015112819270853e-01
-5.015120650106114e-01 -5.015180368568252e-01  5.015112819270853e-01
-5.015120650106114e-01 -5.015180368568252e-01  5.015112819270853e-01
-5.015120650106114e-01 -5.015180368568252e-01  5.015112819270853e-01
-5.015120650106114e-01 -5.015180368568252e-01  5.015112819270853e-01
-5.015120650106114e-01 -5.015180368568252e-01  5.015112819270853e-01
-5.015120650106114e-01 -5.015180368568252e-01  5.015112819270853e-01
-5.015120650106114e-01 -5.015180368568252e-01  5.015112819270853e-01
-5.015120650106114e-01 -5.015180368568252e-01  5.015112819270853e-01
-5.015120650106114e-01 -5.015180368568252e-01  5.015112819270853e-01
-5.015120650106114e-01 -5.015180368568252e-01  5.015112819270853e-01
-5.015120650106114e-01 -5.015180368568252e-01  5.015112819270853e-01
-5.015120650106114e-01 -5.015180368568252e-01  5.015112819270853e-01
-5.015120650106114e-01 -5.015180368568252e-01  5.015112819270853e-01
-5.015120650106114e-01 -5.015180368568252e-01  5.015112819270853e-01
-5.015120650106114e-01 -5.015180368568252e-01  5.015112819270853e-01
-5.015120650106114e-01 -5.015180368568252e-01  5.015112819270853e-01
-5.015120650106114e-01 -5.015180368568252e-01  5.015112819270853e-01
-5.015120650106114e-01 -5.015180368568252e-01  5.015112819270853e-01
-5.015120650106114e-01 -5.015180368568252e-01  5.015112819270853e-01
-5.015120650106114e-01 -5.015180368568252e-01  5.015112819270853e-01
-5.015120650106114e-01 -5.015180368568252e-01  5.015112819270853e-01
-5.015120650106114e-01 -5.015180368568252e-01  5.015112819270853e-01
