# vtk DataFile Version 3.0
# Dislocation lines converted from MoDELib file
ASCII
DATASET UNSTRUCTURED_GRID
POINTS 76 double
 3.614729870000000e+02  2.520525430000000e-14 -3.756537470000001e+01
-3.614729870000000e+02  2.974562240000000e-14 -3.756537470000001e+01
 0.000000000000000e+00  3.272973660000001e-14 -3.756537470000001e+01
0.000000000000000e+00 3.038872880000001e-14 3.547840940000000e+01
-3.614729870000000e+02  2.740461450000000e-14  3.547840940000000e+01
3.614729870000000e+02 2.286424640000000e-14 3.547840940000000e+01
 0.000000000000000e+00  2.300400000000000e+01 -3.756537470000001e+01
-3.614729865400000e+02  2.300400000000000e+01 -3.756537470000001e+01
 3.614729865400000e+02  2.300400000000000e+01 -3.756537470000001e+01
 0.000000000000000e+00 -2.300400000000000e+01  3.547840943000000e+01
-3.614729865400000e+02 -2.300400000000000e+01  3.547840943000000e+01
 3.614729865400000e+02 -2.300400000000000e+01  3.547840943000000e+01
-1.129603082937500e+01  2.300400000000000e+01 -3.756537470000001e+01
-3.388809248812500e+01  2.300400000000000e+01 -3.756537470000001e+01
-5.648015414687501e+01  2.300400000000000e+01 -3.756537470000001e+01
-7.907221580562502e+01  2.300400000000000e+01 -3.756537470000001e+01
-1.016642774643750e+02  2.300400000000000e+01 -3.756537470000001e+01
-1.242563391231250e+02  2.300400000000000e+01 -3.756537470000001e+01
-1.468484007818750e+02  2.300400000000000e+01 -3.756537470000001e+01
-1.694404624406250e+02  2.300400000000000e+01 -3.756537470000001e+01
-1.920325240993750e+02  2.300400000000000e+01 -3.756537470000001e+01
-2.146245857581250e+02  2.300400000000000e+01 -3.756537470000001e+01
-2.372166474168750e+02  2.300400000000000e+01 -3.756537470000001e+01
-2.598087090756251e+02  2.300400000000000e+01 -3.756537470000001e+01
-2.824007707343750e+02  2.300400000000000e+01 -3.756537470000001e+01
-3.049928323931251e+02  2.300400000000000e+01 -3.756537470000001e+01
-3.275848940518750e+02  2.300400000000000e+01 -3.756537470000001e+01
-3.501769557106251e+02  2.300400000000000e+01 -3.756537470000001e+01
 1.129603082937500e+01  2.300400000000000e+01 -3.756537470000001e+01
 3.388809248812500e+01  2.300400000000000e+01 -3.756537470000001e+01
 5.648015414687501e+01  2.300400000000000e+01 -3.756537470000001e+01
 7.907221580562502e+01  2.300400000000000e+01 -3.756537470000001e+01
 1.016642774643750e+02  2.300400000000000e+01 -3.756537470000001e+01
 1.242563391231250e+02  2.300400000000000e+01 -3.756537470000001e+01
 1.468484007818750e+02  2.300400000000000e+01 -3.756537470000001e+01
 1.694404624406250e+02  2.300400000000000e+01 -3.756537470000001e+01
 1.920325240993750e+02  2.300400000000000e+01 -3.756537470000001e+01
 2.146245857581250e+02  2.300400000000000e+01 -3.756537470000001e+01
 2.372166474168750e+02  2.300400000000000e+01 -3.756537470000001e+01
 2.598087090756251e+02  2.300400000000000e+01 -3.756537470000001e+01
 2.824007707343750e+02  2.300400000000000e+01 -3.756537470000001e+01
 3.049928323931251e+02  2.300400000000000e+01 -3.756537470000001e+01
 3.275848940518750e+02  2.300400000000000e+01 -3.756537470000001e+01
 3.501769557106251e+02  2.300400000000000e+01 -3.756537470000001e+01
-1.129603082937500e+01 -2.300400000000000e+01  3.547840943000000e+01
-3.388809248812500e+01 -2.300400000000000e+01  3.547840943000000e+01
-5.648015414687501e+01 -2.300400000000000e+01  3.547840942999999e+01
-7.907221580562502e+01 -2.300400000000000e+01  3.547840943000000e+01
-1.016642774643750e+02 -2.300400000000000e+01  3.547840943000001e+01
-1.242563391231250e+02 -2.300400000000000e+01  3.547840943000000e+01
-1.468484007818750e+02 -2.300400000000000e+01  3.547840943000001e+01
-1.694404624406250e+02 -2.300400000000000e+01  3.547840943000000e+01
-1.920325240993750e+02 -2.300400000000000e+01  3.547840943000000e+01
-2.146245857581250e+02 -2.300400000000000e+01  3.547840943000001e+01
-2.372166474168750e+02 -2.300400000000000e+01  3.547840943000000e+01
-2.598087090756251e+02 -2.300400000000000e+01  3.547840943000001e+01
-2.824007707343750e+02 -2.300400000000000e+01  3.547840943000000e+01
-3.049928323931251e+02 -2.300400000000000e+01  3.547840942999999e+01
-3.275848940518750e+02 -2.300400000000000e+01  3.547840943000000e+01
-3.501769557106251e+02 -2.300400000000000e+01  3.547840943000000e+01
 1.129603082937500e+01 -2.300400000000000e+01  3.547840943000000e+01
 3.388809248812500e+01 -2.300400000000000e+01  3.547840943000000e+01
 5.648015414687501e+01 -2.300400000000000e+01  3.547840942999999e+01
 7.907221580562502e+01 -2.300400000000000e+01  3.547840943000000e+01
 1.016642774643750e+02 -2.300400000000000e+01  3.547840943000001e+01
 1.242563391231250e+02 -2.300400000000000e+01  3.547840943000000e+01
 1.468484007818750e+02 -2.300400000000000e+01  3.547840943000001e+01
 1.694404624406250e+02 -2.300400000000000e+01  3.547840943000000e+01
 1.920325240993750e+02 -2.300400000000000e+01  3.547840943000000e+01
 2.146245857581250e+02 -2.300400000000000e+01  3.547840943000001e+01
 2.372166474168750e+02 -2.300400000000000e+01  3.547840943000000e+01
 2.598087090756251e+02 -2.300400000000000e+01  3.547840943000001e+01
 2.824007707343750e+02 -2.300400000000000e+01  3.547840943000000e+01
 3.049928323931251e+02 -2.300400000000000e+01  3.547840942999999e+01
 3.275848940518750e+02 -2.300400000000000e+01  3.547840943000000e+01
 3.501769557106251e+02 -2.300400000000000e+01  3.547840943000000e+01

CELLS 4 76
18 6 12 13 14 15 16 17 18 19 20 21 22 23 24 25 26 27 7
18 6 28 29 30 31 32 33 34 35 36 37 38 39 40 41 42 43 8
18 9 44 45 46 47 48 49 50 51 52 53 54 55 56 57 58 59 10
18 9 60 61 62 63 64 65 66 67 68 69 70 71 72 73 74 75 11

CELL_TYPES 4
4
4
4
4

POINT_DATA 76
VECTORS PK_force double
0.000000000000000e+00 0.000000000000000e+00 0.000000000000000e+00
0.000000000000000e+00 0.000000000000000e+00 0.000000000000000e+00
0.000000000000000e+00 0.000000000000000e+00 0.000000000000000e+00
0.000000000000000e+00 0.000000000000000e+00 0.000000000000000e+00
0.000000000000000e+00 0.000000000000000e+00 0.000000000000000e+00
0.000000000000000e+00 0.000000000000000e+00 0.000000000000000e+00
0.000000000000000e+00 0.000000000000000e+00 0.000000000000000e+00
0.000000000000000e+00 0.000000000000000e+00 0.000000000000000e+00
0.000000000000000e+00 0.000000000000000e+00 0.000000000000000e+00
0.000000000000000e+00 0.000000000000000e+00 0.000000000000000e+00
0.000000000000000e+00 0.000000000000000e+00 0.000000000000000e+00
0.000000000000000e+00 0.000000000000000e+00 0.000000000000000e+00
 0.000000000000000e+00 -1.988216350422891e-03  2.478662793011486e-03
 0.000000000000000e+00 -1.988875188257975e-03  2.478884928382737e-03
 0.000000000000000e+00 -1.990143081941777e-03  2.479342407631668e-03
 0.000000000000000e+00 -1.991932916713505e-03  2.480056552065776e-03
 0.000000000000000e+00 -1.994137432530082e-03  2.481043306561374e-03
 0.000000000000000e+00 -1.996645771593071e-03  2.482296894099007e-03
 0.000000000000000e+00 -1.999355792250614e-03  2.483778596178808e-03
 0.000000000000000e+00 -2.002179423273593e-03  2.485415008150601e-03
 0.000000000000000e+00 -2.005040649308956e-03  2.487106566584143e-03
 0.000000000000000e+00 -2.007868118955875e-03  2.488743994120628e-03
 0.000000000000000e+00 -2.010585812539612e-03  2.490227728225891e-03
 0.000000000000000e+00 -2.013105650018593e-03  2.491484366012119e-03
 0.000000000000000e+00 -2.015325476096519e-03  2.492475191548113e-03
 0.000000000000000e+00 -2.017134413978777e-03  2.493194431098474e-03
 0.000000000000000e+00 -2.018425178567230e-03  2.493658033416870e-03
 0.000000000000000e+00 -2.019110623077284e-03  2.493887324123345e-03
 0.000000000000000e+00 -1.988216350422893e-03  2.478662793011487e-03
 0.000000000000000e+00 -1.988875188257974e-03  2.478884928382738e-03
 0.000000000000000e+00 -1.990143081941776e-03  2.479342407631668e-03
 0.000000000000000e+00 -1.991932916713505e-03  2.480056552065776e-03
 0.000000000000000e+00 -1.994137432530080e-03  2.481043306561375e-03
 0.000000000000000e+00 -1.996645771593070e-03  2.482296894099007e-03
 0.000000000000000e+00 -1.999355792250614e-03  2.483778596178808e-03
 0.000000000000000e+00 -2.002179423273591e-03  2.485415008150602e-03
 0.000000000000000e+00 -2.005040649308955e-03  2.487106566584144e-03
 0.000000000000000e+00 -2.007868118955874e-03  2.488743994120627e-03
 0.000000000000000e+00 -2.010585812539611e-03  2.490227728225891e-03
 0.000000000000000e+00 -2.013105650018593e-03  2.491484366012118e-03
 0.000000000000000e+00 -2.015325476096519e-03  2.492475191548112e-03
 0.000000000000000e+00 -2.017134413978777e-03  2.493194431098474e-03
 0.000000000000000e+00 -2.018425178567231e-03  2.493658033416872e-03
 0.000000000000000e+00 -2.019110623077284e-03  2.493887324123345e-03
 0.000000000000000e+00  1.988216350422891e-03 -2.478662793011487e-03
 0.000000000000000e+00  1.988875188257974e-03 -2.478884928382736e-03
 0.000000000000000e+00  1.990143081941775e-03 -2.479342407632101e-03
 0.000000000000000e+00  1.991932916713505e-03 -2.480056552065775e-03
 0.000000000000000e+00  1.994137432530081e-03 -2.481043306560942e-03
 0.000000000000000e+00  1.996645771593070e-03 -2.482296894099007e-03
 0.000000000000000e+00  1.999355792250613e-03 -2.483778596178375e-03
 0.000000000000000e+00  2.002179423273591e-03 -2.485415008150602e-03
 0.000000000000000e+00  2.005040649308956e-03 -2.487106566584143e-03
 0.000000000000000e+00  2.007868118955873e-03 -2.488743994120196e-03
 0.000000000000000e+00  2.010585812539611e-03 -2.490227728225891e-03
 0.000000000000000e+00  2.013105650018595e-03 -2.491484366011684e-03
 0.000000000000000e+00  2.015325476096519e-03 -2.492475191548113e-03
 0.000000000000000e+00  2.017134413978778e-03 -2.493194431098908e-03
 0.000000000000000e+00  2.018425178567232e-03 -2.493658033416872e-03
 0.000000000000000e+00  2.019110623077284e-03 -2.493887324123346e-03
 0.000000000000000e+00  1.988216350422892e-03 -2.478662793011485e-03
 0.000000000000000e+00  1.988875188257974e-03 -2.478884928382738e-03
 0.000000000000000e+00  1.990143081941775e-03 -2.479342407632100e-03
 0.000000000000000e+00  1.991932916713505e-03 -2.480056552065776e-03
 0.000000000000000e+00  1.994137432530079e-03 -2.481043306560942e-03
 0.000000000000000e+00  1.996645771593071e-03 -2.482296894099007e-03
 0.000000000000000e+00  1.999355792250615e-03 -2.483778596178375e-03
 0.000000000000000e+00  2.002179423273592e-03 -2.485415008150603e-03
 0.000000000000000e+00  2.005040649308956e-03 -2.487106566584144e-03
 0.000000000000000e+00  2.007868118955875e-03 -2.488743994120195e-03
 0.000000000000000e+00  2.010585812539611e-03 -2.490227728225891e-03
 0.000000000000000e+00  2.013105650018593e-03 -2.491484366011684e-03
 0.000000000000000e+00  2.015325476096519e-03 -2.492475191548112e-03
 0.000000000000000e+00  2.017134413978778e-03 -2.493194431098909e-03
 0.000000000000000e+00  2.018425178567230e-03 -2.493658033416872e-03
 0.000000000000000e+00  2.019110623077285e-03 -2.493887324123345e-03

TENSORS stress double
0.000000000000000e+00 0.000000000000000e+00 0.000000000000000e+00
0.000000000000000e+00 0.000000000000000e+00 0.000000000000000e+00
0.000000000000000e+00 0.000000000000000e+00 0.000000000000000e+00

0.000000000000000e+00 0.000000000000000e+00 0.000000000000000e+00
0.000000000000000e+00 0.000000000000000e+00 0.000000000000000e+00
0.000000000000000e+00 0.000000000000000e+00 0.000000000000000e+00

0.000000000000000e+00 0.000000000000000e+00 0.000000000000000e+00
0.000000000000000e+00 0.000000000000000e+00 0.000000000000000e+00
0.000000000000000e+00 0.000000000000000e+00 0.000000000000000e+00

0.000000000000000e+00 0.000000000000000e+00 0.000000000000000e+00
0.000000000000000e+00 0.000000000000000e+00 0.000000000000000e+00
0.000000000000000e+00 0.000000000000000e+00 0.000000000000000e+00

0.000000000000000e+00 0.000000000000000e+00 0.000000000000000e+00
0.000000000000000e+00 0.000000000000000e+00 0.000000000000000e+00
0.000000000000000e+00 0.000000000000000e+00 0.000000000000000e+00

0.000000000000000e+00 0.000000000000000e+00 0.000000000000000e+00
0.000000000000000e+00 0.000000000000000e+00 0.000000000000000e+00
0.000000000000000e+00 0.000000000000000e+00 0.000000000000000e+00

0.000000000000000e+00 0.000000000000000e+00 0.000000000000000e+00
0.000000000000000e+00 0.000000000000000e+00 0.000000000000000e+00
0.000000000000000e+00 0.000000000000000e+00 0.000000000000000e+00

0.000000000000000e+00 0.000000000000000e+00 0.000000000000000e+00
0.000000000000000e+00 0.000000000000000e+00 0.000000000000000e+00
0.000000000000000e+00 0.000000000000000e+00 0.000000000000000e+00

0.000000000000000e+00 0.000000000000000e+00 0.000000000000000e+00
0.000000000000000e+00 0.000000000000000e+00 0.000000000000000e+00
0.000000000000000e+00 0.000000000000000e+00 0.000000000000000e+00

0.000000000000000e+00 0.000000000000000e+00 0.000000000000000e+00
0.000000000000000e+00 0.000000000000000e+00 0.000000000000000e+00
0.000000000000000e+00 0.000000000000000e+00 0.000000000000000e+00

0.000000000000000e+00 0.000000000000000e+00 0.000000000000000e+00
0.000000000000000e+00 0.000000000000000e+00 0.000000000000000e+00
0.000000000000000e+00 0.000000000000000e+00 0.000000000000000e+00

0.000000000000000e+00 0.000000000000000e+00 0.000000000000000e+00
0.000000000000000e+00 0.000000000000000e+00 0.000000000000000e+00
0.000000000000000e+00 0.000000000000000e+00 0.000000000000000e+00

 1.129197318934727e-18 -1.553699365340310e-01 -1.246272986596188e-01
-1.553699365340310e-01 -4.945741723960117e-18  2.139987624553248e-18
-1.246272986596188e-01  2.139987624553248e-18  7.614210393334736e-18

 1.120201476441842e-18 -1.553838606380400e-01 -1.246685965694885e-01
-1.553838606380400e-01 -4.945495484253770e-18  2.140056203416181e-18
-1.246685965694885e-01  2.140056203416181e-18  7.625477556187403e-18

 1.104783241091195e-18 -1.554125367944226e-01 -1.247480719066500e-01
-1.554125367944226e-01 -4.945639152957237e-18  2.141247656752868e-18
-1.247480719066500e-01  2.141247656752868e-18  7.645821329311113e-18

 1.085386028120111e-18 -1.554573014859798e-01 -1.248602640594808e-01
-1.554573014859798e-01 -4.946682010712136e-18  2.144438379575221e-18
-1.248602640594808e-01  2.144438379575221e-18  7.672868174618930e-18

 1.063257900332144e-18 -1.555191541848576e-01 -1.249984496503065e-01
-1.555191541848576e-01 -4.948714910211870e-18  2.149825815537836e-18
-1.249984496503065e-01  2.149825815537836e-18  7.704941523911061e-18

 1.038993692055783e-18 -1.555977327703397e-01 -1.251556797834740e-01
-1.555977327703397e-01 -4.951578701675951e-18  2.157155417666036e-18
-1.251556797834740e-01  2.157155417666036e-18  7.740797381794859e-18

 1.013082935667537e-18 -1.556906102520004e-01 -1.253255519172533e-01
-1.556906102520004e-01 -4.955034421210367e-18  2.165964876253417e-18
-1.253255519172533e-01  2.165964876253417e-18  7.779325940746492e-18

 9.861113425561648e-19 -1.557931854086202e-01 -1.255025454857503e-01
-1.557931854086202e-01 -4.958834346372622e-18  2.175694627791257e-18
-1.255025454857503e-01  2.175694627791257e-18  7.819449074806859e-18

 9.587685308649129e-19 -1.558992173090482e-01 -1.256818956211448e-01
-1.558992173090482e-01 -4.962738062689485e-18  2.185735107484443e-18
-1.256818956211448e-01  2.185735107484443e-18  7.860101634753229e-18

 9.317843200252796e-19 -1.560018561242755e-01 -1.258591298059771e-01
-1.560018561242755e-01 -4.966508996947960e-18  2.195460288414204e-18
-1.258591298059771e-01  2.195460288414204e-18  7.900223649364998e-18

 9.058482456955255e-19 -1.560948609793200e-01 -1.260294829015312e-01
-1.560948609793200e-01 -4.969906632523586e-18  2.204260595073576e-18
-1.260294829015312e-01  2.204260595073576e-18  7.938749928384388e-18

 8.815458533202910e-19 -1.561736307634322e-01 -1.261874337895219e-01
-1.561736307634322e-01 -4.972683042036776e-18  2.211576442478720e-18
-1.261874337895219e-01  2.211576442478720e-18  7.974602263231644e-18

 8.593664242869038e-19 -1.562357386471983e-01 -1.263265790729449e-01
-1.562357386471983e-01 -4.974598952596569e-18  2.216945488581944e-18
-1.263265790729449e-01  2.216945488581944e-18  8.006670721067358e-18

 8.399044548538043e-19 -1.562808227157563e-01 -1.264399686654110e-01
-1.562808227157563e-01 -4.975494799443252e-18  2.220113143046498e-18
-1.264399686654110e-01  2.220113143046498e-18  8.033711136805287e-18

 8.244075787952711e-19 -1.563098826842964e-01 -1.265208776187200e-01
-1.563098826842964e-01 -4.975460911724655e-18  2.221276794936877e-18
-1.265208776187200e-01  2.221276794936877e-18  8.054046725897557e-18

 8.153186878027274e-19 -1.563242553059427e-01 -1.265638433139024e-01
-1.563242553059427e-01 -4.975005934699294e-18  2.221312773181847e-18
-1.265638433139024e-01  2.221312773181847e-18  8.065303684348118e-18

 1.129197318934727e-18 -1.553699365340310e-01 -1.246272986596189e-01
-1.553699365340310e-01 -4.945741723960115e-18  2.139987624553248e-18
-1.246272986596189e-01  2.139987624553248e-18  7.614210393334736e-18

 1.120201476441841e-18 -1.553838606380401e-01 -1.246685965694884e-01
-1.553838606380401e-01 -4.945495484253770e-18  2.140056203416180e-18
-1.246685965694884e-01  2.140056203416180e-18  7.625477556187400e-18

 1.104783241091196e-18 -1.554125367944226e-01 -1.247480719066499e-01
-1.554125367944226e-01 -4.945639152957236e-18  2.141247656752868e-18
-1.247480719066499e-01  2.141247656752868e-18  7.645821329311115e-18

 1.085386028120111e-18 -1.554573014859798e-01 -1.248602640594808e-01
-1.554573014859798e-01 -4.946682010712134e-18  2.144438379575222e-18
-1.248602640594808e-01  2.144438379575222e-18  7.672868174618927e-18

 1.063257900332145e-18 -1.555191541848577e-01 -1.249984496503064e-01
-1.555191541848577e-01 -4.948714910211868e-18  2.149825815537837e-18
-1.249984496503064e-01  2.149825815537837e-18  7.704941523911060e-18

 1.038993692055784e-18 -1.555977327703397e-01 -1.251556797834739e-01
-1.555977327703397e-01 -4.951578701675950e-18  2.157155417666036e-18
-1.251556797834739e-01  2.157155417666036e-18  7.740797381794863e-18

 1.013082935667537e-18 -1.556906102520004e-01 -1.253255519172533e-01
-1.556906102520004e-01 -4.955034421210366e-18  2.165964876253418e-18
-1.253255519172533e-01  2.165964876253418e-18  7.779325940746491e-18

 9.861113425561643e-19 -1.557931854086203e-01 -1.255025454857502e-01
-1.557931854086203e-01 -4.958834346372622e-18  2.175694627791257e-18
-1.255025454857502e-01  2.175694627791257e-18  7.819449074806862e-18

 9.587685308649129e-19 -1.558992173090483e-01 -1.256818956211447e-01
-1.558992173090483e-01 -4.962738062689486e-18  2.185735107484443e-18
-1.256818956211447e-01  2.185735107484443e-18  7.860101634753232e-18

 9.317843200252798e-19 -1.560018561242754e-01 -1.258591298059771e-01
-1.560018561242754e-01 -4.966508996947960e-18  2.195460288414205e-18
-1.258591298059771e-01  2.195460288414205e-18  7.900223649365000e-18

 9.058482456955259e-19 -1.560948609793200e-01 -1.260294829015311e-01
-1.560948609793200e-01 -4.969906632523585e-18  2.204260595073575e-18
-1.260294829015311e-01  2.204260595073575e-18  7.938749928384392e-18

 8.815458533202912e-19 -1.561736307634322e-01 -1.261874337895218e-01
-1.561736307634322e-01 -4.972683042036779e-18  2.211576442478720e-18
-1.261874337895218e-01  2.211576442478720e-18  7.974602263231649e-18

 8.593664242869032e-19 -1.562357386471982e-01 -1.263265790729449e-01
-1.562357386471982e-01 -4.974598952596565e-18  2.216945488581944e-18
-1.263265790729449e-01  2.216945488581944e-18  8.006670721067362e-18

 8.399044548538041e-19 -1.562808227157563e-01 -1.264399686654110e-01
-1.562808227157563e-01 -4.975494799443252e-18  2.220113143046497e-18
-1.264399686654110e-01  2.220113143046497e-18  8.033711136805287e-18

 8.244075787952714e-19 -1.563098826842965e-01 -1.265208776187200e-01
-1.563098826842965e-01 -4.975460911724653e-18  2.221276794936877e-18
-1.265208776187200e-01  2.221276794936877e-18  8.054046725897560e-18

 8.153186878027280e-19 -1.563242553059427e-01 -1.265638433139024e-01
-1.563242553059427e-01 -4.975005934699292e-18  2.221312773181847e-18
-1.265638433139024e-01  2.221312773181847e-18  8.065303684348115e-18

 1.129197318934700e-18 -1.553699365340310e-01 -1.246272986596188e-01
-1.553699365340310e-01 -4.945741723960116e-18  2.139987624553247e-18
-1.246272986596188e-01  2.139987624553247e-18  7.614210393334741e-18

 1.120201476441803e-18 -1.553838606380400e-01 -1.246685965694884e-01
-1.553838606380400e-01 -4.945495484253770e-18  2.140056203416181e-18
-1.246685965694884e-01  2.140056203416181e-18  7.625477556187403e-18

 1.104783241090997e-18 -1.554125367944497e-01 -1.247480719066499e-01
-1.554125367944497e-01 -4.945639152957742e-18  2.141247656753232e-18
-1.247480719066499e-01  2.141247656753232e-18  7.645821329310937e-18

 1.085386028120093e-18 -1.554573014859797e-01 -1.248602640594809e-01
-1.554573014859797e-01 -4.946682010712134e-18  2.144438379575221e-18
-1.248602640594809e-01  2.144438379575221e-18  7.672868174618935e-18

 1.063257900332347e-18 -1.555191541848305e-01 -1.249984496503065e-01
-1.555191541848305e-01 -4.948714910211360e-18  2.149825815537470e-18
-1.249984496503065e-01  2.149825815537470e-18  7.704941523911231e-18

 1.038993692055790e-18 -1.555977327703397e-01 -1.251556797834739e-01
-1.555977327703397e-01 -4.951578701675949e-18  2.157155417666036e-18
-1.251556797834739e-01  2.157155417666036e-18  7.740797381794860e-18

 1.013082935667760e-18 -1.556906102519733e-01 -1.253255519172533e-01
-1.556906102519733e-01 -4.955034421209857e-18  2.165964876253051e-18
-1.253255519172533e-01  2.165964876253051e-18  7.779325940746663e-18

 9.861113425561573e-19 -1.557931854086203e-01 -1.255025454857502e-01
-1.557931854086203e-01 -4.958834346372621e-18  2.175694627791257e-18
-1.255025454857502e-01  2.175694627791257e-18  7.819449074806862e-18

 9.587685308648803e-19 -1.558992173090482e-01 -1.256818956211448e-01
-1.558992173090482e-01 -4.962738062689483e-18  2.185735107484444e-18
-1.256818956211448e-01  2.185735107484444e-18  7.860101634753231e-18

 9.317843200255017e-19 -1.560018561242484e-01 -1.258591298059771e-01
-1.560018561242484e-01 -4.966508996947450e-18  2.195460288413838e-18
-1.258591298059771e-01  2.195460288413838e-18  7.900223649365166e-18

 9.058482456955242e-19 -1.560948609793200e-01 -1.260294829015312e-01
-1.560948609793200e-01 -4.969906632523586e-18  2.204260595073576e-18
-1.260294829015312e-01  2.204260595073576e-18  7.938749928384385e-18

 8.815458533205000e-19 -1.561736307634050e-01 -1.261874337895219e-01
-1.561736307634050e-01 -4.972683042036267e-18  2.211576442478353e-18
-1.261874337895219e-01  2.211576442478353e-18  7.974602263231820e-18

 8.593664242869060e-19 -1.562357386471983e-01 -1.263265790729449e-01
-1.562357386471983e-01 -4.974598952596569e-18  2.216945488581944e-18
-1.263265790729449e-01  2.216945488581944e-18  8.006670721067359e-18

 8.399044548539950e-19 -1.562808227157835e-01 -1.264399686654111e-01
-1.562808227157835e-01 -4.975494799443770e-18  2.220113143046866e-18
-1.264399686654111e-01  2.220113143046866e-18  8.033711136805122e-18

 8.244075787952660e-19 -1.563098826842964e-01 -1.265208776187200e-01
-1.563098826842964e-01 -4.975460911724656e-18  2.221276794936877e-18
-1.265208776187200e-01  2.221276794936877e-18  8.054046725897559e-18

 8.153186878027260e-19 -1.563242553059428e-01 -1.265638433139024e-01
-1.563242553059428e-01 -4.975005934699292e-18  2.221312773181847e-18
-1.265638433139024e-01  2.221312773181847e-18  8.065303684348118e-18

 1.129197318934700e-18 -1.553699365340309e-01 -1.246272986596188e-01
-1.553699365340309e-01 -4.945741723960115e-18  2.139987624553247e-18
-1.246272986596188e-01  2.139987624553247e-18  7.614210393334736e-18

 1.120201476441802e-18 -1.553838606380401e-01 -1.246685965694884e-01
-1.553838606380401e-01 -4.945495484253768e-18  2.140056203416180e-18
-1.246685965694884e-01  2.140056203416180e-18  7.625477556187400e-18

 1.104783241090997e-18 -1.554125367944497e-01 -1.247480719066499e-01
-1.554125367944497e-01 -4.945639152957742e-18  2.141247656753232e-18
-1.247480719066499e-01  2.141247656753232e-18  7.645821329310940e-18

 1.085386028120093e-18 -1.554573014859798e-01 -1.248602640594809e-01
-1.554573014859798e-01 -4.946682010712132e-18  2.144438379575221e-18
-1.248602640594809e-01  2.144438379575221e-18  7.672868174618930e-18

 1.063257900332346e-18 -1.555191541848306e-01 -1.249984496503063e-01
-1.555191541848306e-01 -4.948714910211358e-18  2.149825815537471e-18
-1.249984496503063e-01  2.149825815537471e-18  7.704941523911228e-18

 1.038993692055791e-18 -1.555977327703397e-01 -1.251556797834740e-01
-1.555977327703397e-01 -4.951578701675949e-18  2.157155417666035e-18
-1.251556797834740e-01  2.157155417666035e-18  7.740797381794865e-18

 1.013082935667760e-18 -1.556906102519733e-01 -1.253255519172534e-01
-1.556906102519733e-01 -4.955034421209857e-18  2.165964876253052e-18
-1.253255519172534e-01  2.165964876253052e-18  7.779325940746662e-18

 9.861113425561577e-19 -1.557931854086204e-01 -1.255025454857502e-01
-1.557931854086204e-01 -4.958834346372621e-18  2.175694627791257e-18
-1.255025454857502e-01  2.175694627791257e-18  7.819449074806864e-18

 9.587685308648801e-19 -1.558992173090482e-01 -1.256818956211448e-01
-1.558992173090482e-01 -4.962738062689485e-18  2.185735107484444e-18
-1.256818956211448e-01  2.185735107484444e-18  7.860101634753231e-18

 9.317843200255019e-19 -1.560018561242484e-01 -1.258591298059772e-01
-1.560018561242484e-01 -4.966508996947449e-18  2.195460288413840e-18
-1.258591298059772e-01  2.195460288413840e-18  7.900223649365168e-18

 9.058482456955242e-19 -1.560948609793200e-01 -1.260294829015312e-01
-1.560948609793200e-01 -4.969906632523584e-18  2.204260595073575e-18
-1.260294829015312e-01  2.204260595073575e-18  7.938749928384390e-18

 8.815458533205002e-19 -1.561736307634049e-01 -1.261874337895218e-01
-1.561736307634049e-01 -4.972683042036269e-18  2.211576442478354e-18
-1.261874337895218e-01  2.211576442478354e-18  7.974602263231823e-18

 8.593664242869053e-19 -1.562357386471982e-01 -1.263265790729449e-01
-1.562357386471982e-01 -4.974598952596566e-18  2.216945488581944e-18
-1.263265790729449e-01  2.216945488581944e-18  8.006670721067362e-18

 8.399044548539949e-19 -1.562808227157836e-01 -1.264399686654111e-01
-1.562808227157836e-01 -4.975494799443770e-18  2.220113143046865e-18
-1.264399686654111e-01  2.220113143046865e-18  8.033711136805121e-18

 8.244075787952660e-19 -1.563098826842965e-01 -1.265208776187199e-01
-1.563098826842965e-01 -4.975460911724655e-18  2.221276794936877e-18
-1.265208776187199e-01  2.221276794936877e-18  8.054046725897560e-18

 8.153186878027264e-19 -1.563242553059427e-01 -1.265638433139024e-01
-1.563242553059427e-01 -4.975005934699290e-18  2.221312773181847e-18
-1.265638433139024e-01  2.221312773181847e-18  8.065303684348116e-18


CELL_DATA 4
SCALARS dislocation_index int
LOOKUP_TABLE default
0
1
2
3

VECTORS burgers_vector_global double
-2.556000000000000e+00 -2.110087420000000e-17  4.548706890000000e-17
 2.556000000000000e+00  2.110087420000000e-17 -4.548706890000000e-17
 2.556000000000000e+00  2.110087420000000e-17 -4.548706890000000e-17
-2.556000000000000e+00 -2.110087420000000e-17  4.548706890000000e-17

VECTORS burgers_vector_local double
-7.220836171783673e-18 -5.000000000000001e-01 -5.000000000000001e-01
7.220836171783673e-18 5.000000000000001e-01 5.000000000000001e-01
7.220836171783673e-18 5.000000000000001e-01 5.000000000000001e-01
-7.220836171783673e-18 -5.000000000000001e-01 -5.000000000000001e-01
