# vtk DataFile Version 3.0
# Dislocation lines converted from MoDELib file
ASCII
DATASET UNSTRUCTURED_GRID
POINTS 12 double
 3.61472987e+02  2.52052543e-14 -3.75653747e+01
-3.61472987e+02  2.97456224e-14 -3.75653747e+01
 0.00000000e+00  3.27297366e-14 -3.75653747e+01
0.00000000e+00 3.03887288e-14 3.54784094e+01
-3.61472987e+02  2.74046145e-14  3.54784094e+01
3.61472987e+02 2.28642464e-14 3.54784094e+01
  0.         23.004     -37.5653747
-361.47298654   23.004       -37.5653747 
361.47298654  23.004      -37.5653747 
  0.         -23.004       35.47840943
-361.47298654  -23.004        35.47840943
361.47298654 -23.004       35.47840943

CELLS 4 12
2 6 7
2 6 8
2 9 10
2 9 11

CELL_TYPES 4
4
4
4
4

CELL_DATA 4
SCALARS dislocation_index int
LOOKUP_TABLE default
0
1
2
3

VECTORS burgers_vector_world double
-2.55600000e+00 -2.11008742e-17  4.54870689e-17
 2.55600000e+00  2.11008742e-17 -4.54870689e-17
 2.55600000e+00  2.11008742e-17 -4.54870689e-17
-2.55600000e+00 -2.11008742e-17  4.54870689e-17

VECTORS burgers_vector_local double
-1.20315389e-17 -5.00000000e-01 -5.00000000e-01
1.20315389e-17 5.00000000e-01 5.00000000e-01
1.20315389e-17 5.00000000e-01 5.00000000e-01
-1.20315389e-17 -5.00000000e-01 -5.00000000e-01
