# vtk DataFile Version 3.0
# Dislocation lines converted from MoDELib file
ASCII
DATASET UNSTRUCTURED_GRID
POINTS 59 double
3.955253278000000e+02 1.229825662900000e+02 2.309373175700000e+02
3.974026984800000e+02 1.229818023200000e+02 2.074812399700000e+02
3.955235375100000e+02 1.230222669700000e+02 1.762073884900000e+02
3.860085142800000e+02 1.230961227700000e+02 1.505100773600000e+02
3.701694251800000e+02 1.232177178000000e+02 1.278472148000000e+02
3.487965402000000e+02 1.233583016100000e+02 1.092155680100000e+02
3.240500132700000e+02 1.235282100100000e+02 9.503664829000000e+01
2.955642458200000e+02 1.237228528000000e+02 8.515001445999999e+01
2.624995171200000e+02 1.238184046600000e+02 7.973941438000001e+01
2.276877992600000e+02 1.238888013900000e+02 8.076288366000000e+01
1.926106935100000e+02 1.239519946800000e+02 8.964405108000000e+01
1.597139229000000e+02 1.240141622900000e+02 1.042424410900000e+02
1.334065864800000e+02 1.240814383500000e+02 1.260069724400000e+02
1.148592168500000e+02 1.241079599700000e+02 1.559676977600000e+02
1.048228314200000e+02 1.241157578300000e+02 1.875425971600000e+02
1.023615435500000e+02 1.241089182900000e+02 2.166542091600000e+02
1.051194467700000e+02 1.241111919300000e+02 2.440574086000000e+02
1.135641441700000e+02 1.240354380800000e+02 2.702415097600000e+02
1.278932412300000e+02 1.238476139500000e+02 2.938301743600000e+02
1.473941784300000e+02 1.237057989300000e+02 3.134036435300000e+02
1.720824006400000e+02 1.235699958400000e+02 3.293530792300000e+02
2.004106786000000e+02 1.233780321300000e+02 3.409505822200001e+02
2.310183270900000e+02 1.232078778500000e+02 3.476577252000000e+02
2.634124475100000e+02 1.230644976000000e+02 3.490683450300000e+02
2.967049555200001e+02 1.230172672300000e+02 3.428397198500000e+02
3.302004846800000e+02 1.230448027300000e+02 3.284451223800000e+02
3.602473960000000e+02 1.230158421700000e+02 3.061328295000000e+02
3.799288624200000e+02 1.229031796900000e+02 2.801063333200000e+02
3.884206493900000e+02 1.228675574400000e+02 2.596886739700000e+02
3.964640131400000e+02 1.229821843050000e+02 2.192092787700000e+02
3.919729885950000e+02 1.229250618650000e+02 2.453129957700000e+02
3.964631179949999e+02 1.230020346450000e+02 1.918443142300000e+02
3.907660258950000e+02 1.230591948700000e+02 1.633587329250000e+02
3.780889697300000e+02 1.231569202850000e+02 1.391786460800000e+02
3.594829826900000e+02 1.232880097050000e+02 1.185313914050000e+02
3.364232767349999e+02 1.234432558100000e+02 1.021261081500000e+02
3.098071295450000e+02 1.236255314050000e+02 9.009333137500001e+01
2.790318814700000e+02 1.237706287300000e+02 8.244471442000000e+01
2.450936581900000e+02 1.238536030250000e+02 8.025114902000000e+01
2.101492463850000e+02 1.239203980350000e+02 8.520346737000000e+01
1.761623082050000e+02 1.239830784850000e+02 9.694324608500000e+01
1.465602546900000e+02 1.240478003200000e+02 1.151247067650000e+02
1.241329016650000e+02 1.240946991600000e+02 1.409873351000000e+02
1.098410241350000e+02 1.241118589000000e+02 1.717551474600000e+02
1.035921874850000e+02 1.241123380600000e+02 2.020984031600000e+02
1.037404951600000e+02 1.241100551100000e+02 2.303558088800000e+02
1.093417954700000e+02 1.240733150050000e+02 2.571494591800000e+02
1.207286927000000e+02 1.239415260150000e+02 2.820358420600000e+02
1.376437098300000e+02 1.237767064400000e+02 3.036169089450000e+02
1.597382895350000e+02 1.236378973850000e+02 3.213783613800000e+02
1.862465396200000e+02 1.234740139850000e+02 3.351518307250001e+02
2.157145028450000e+02 1.232929549900000e+02 3.443041537100001e+02
2.472153873000000e+02 1.231361877250000e+02 3.483630351150001e+02
2.800587015150001e+02 1.230408824150000e+02 3.459540324400001e+02
3.134527201000000e+02 1.230310349800000e+02 3.356424211150001e+02
3.377122125100000e+02 1.230375625900000e+02 3.228670491600000e+02
3.527356681700000e+02 1.230230823100000e+02 3.117109027200000e+02
3.700881292100000e+02 1.229595109300000e+02 2.931195814100000e+02
3.841747559050000e+02 1.228853685650000e+02 2.698975036450000e+02

CELLS 29 117
3 0 29 1
3 0 30 28
3 1 31 2
3 2 32 3
3 3 33 4
3 4 34 5
3 5 35 6
3 6 36 7
3 7 37 8
3 8 38 9
3 9 39 10
3 10 40 11
3 11 41 12
3 12 42 13
3 13 43 14
3 14 44 15
3 15 45 16
3 16 46 17
3 17 47 18
3 18 48 19
3 19 49 20
3 20 50 21
3 21 51 22
3 22 52 23
3 23 53 24
3 24 54 25
4 25 55 56 26
3 26 57 27
3 27 58 28

CELL_TYPES 29
4
4
4
4
4
4
4
4
4
4
4
4
4
4
4
4
4
4
4
4
4
4
4
4
4
4
4
4
4

POINT_DATA 59
VECTORS PK_force double
0.000000000000000e+00 0.000000000000000e+00 0.000000000000000e+00
0.000000000000000e+00 0.000000000000000e+00 0.000000000000000e+00
0.000000000000000e+00 0.000000000000000e+00 0.000000000000000e+00
0.000000000000000e+00 0.000000000000000e+00 0.000000000000000e+00
0.000000000000000e+00 0.000000000000000e+00 0.000000000000000e+00
0.000000000000000e+00 0.000000000000000e+00 0.000000000000000e+00
0.000000000000000e+00 0.000000000000000e+00 0.000000000000000e+00
0.000000000000000e+00 0.000000000000000e+00 0.000000000000000e+00
0.000000000000000e+00 0.000000000000000e+00 0.000000000000000e+00
0.000000000000000e+00 0.000000000000000e+00 0.000000000000000e+00
0.000000000000000e+00 0.000000000000000e+00 0.000000000000000e+00
0.000000000000000e+00 0.000000000000000e+00 0.000000000000000e+00
0.000000000000000e+00 0.000000000000000e+00 0.000000000000000e+00
0.000000000000000e+00 0.000000000000000e+00 0.000000000000000e+00
0.000000000000000e+00 0.000000000000000e+00 0.000000000000000e+00
0.000000000000000e+00 0.000000000000000e+00 0.000000000000000e+00
0.000000000000000e+00 0.000000000000000e+00 0.000000000000000e+00
0.000000000000000e+00 0.000000000000000e+00 0.000000000000000e+00
0.000000000000000e+00 0.000000000000000e+00 0.000000000000000e+00
0.000000000000000e+00 0.000000000000000e+00 0.000000000000000e+00
0.000000000000000e+00 0.000000000000000e+00 0.000000000000000e+00
0.000000000000000e+00 0.000000000000000e+00 0.000000000000000e+00
0.000000000000000e+00 0.000000000000000e+00 0.000000000000000e+00
0.000000000000000e+00 0.000000000000000e+00 0.000000000000000e+00
0.000000000000000e+00 0.000000000000000e+00 0.000000000000000e+00
0.000000000000000e+00 0.000000000000000e+00 0.000000000000000e+00
0.000000000000000e+00 0.000000000000000e+00 0.000000000000000e+00
0.000000000000000e+00 0.000000000000000e+00 0.000000000000000e+00
0.000000000000000e+00 0.000000000000000e+00 0.000000000000000e+00
6.402283670235696e-03 1.040741293265487e-05 5.124237692917400e-04
6.454039035696275e-03 5.537795182510271e-05 1.595063554941145e-03
 6.396259330394472e-03  5.833718497142029e-05 -3.842584051916027e-04
 4.829825825552267e-03  7.607296505883883e-05 -1.788135975193399e-03
 3.808251701082134e-03  6.485306099969909e-05 -2.661241581423973e-03
 3.015053638092178e-03  4.288426105292848e-05 -3.458329073587326e-03
 2.423818076524080e-03  1.905210361147483e-05 -4.230071357769317e-03
 1.788147413421271e-03 -4.313494471503244e-05 -5.152931540403092e-03
 9.817003082345547e-04 -5.702483852791176e-05 -6.000277733679691e-03
-1.775334686443689e-04 -3.121222321984113e-05 -6.036378329503275e-03
-1.534326382006666e-03 -2.388791862826789e-05 -6.059813609559607e-03
-2.295216342138947e-03 -2.079575546661042e-05 -5.172071210149332e-03
-3.000115832197838e-03 -3.455962733700311e-05 -3.626208632378134e-03
-4.752674400013131e-03 -4.472402059932363e-05 -2.942132466191003e-03
-6.001564388732994e-03 -4.003759460671403e-05 -1.907645070144836e-03
-6.405361335453559e-03 -4.149978325952644e-05 -5.415612848009407e-04
-6.242110851644453e-03 -7.482342440716386e-05  6.282225466617949e-04
-5.482254089887509e-03 -1.167885147325284e-04  1.767757059772439e-03
-4.347492079512762e-03 -6.744224022929781e-05  2.640377051900736e-03
-3.294533227645826e-03 -1.348244162240508e-05  3.282227233451957e-03
-2.726110153590788e-03 -2.339553004603950e-05  4.219562204041741e-03
-2.104966515542366e-03 -2.450564329366668e-06  5.141590063030979e-03
-1.250887322785232e-03  3.679074715385768e-05  5.709283325804514e-03
-2.422291988679412e-04  6.822107484042814e-05  5.569596588000721e-03
9.946299616177231e-04 8.113638542463266e-05 5.315762773614232e-03
2.263462529613727e-03 3.737164711948155e-05 5.267038857338251e-03
 2.565214544129393e-03 -9.703767302220378e-06  3.454465902061309e-03
 2.338581941992361e-03 -2.451498721246026e-05  3.149289701926680e-03
4.242978713215224e-03 2.358040381282959e-05 3.208475926249215e-03
4.732272326480383e-03 1.255287083811308e-04 1.967952162227917e-03

TENSORS stress double
0.000000000000000e+00 0.000000000000000e+00 0.000000000000000e+00
0.000000000000000e+00 0.000000000000000e+00 0.000000000000000e+00
0.000000000000000e+00 0.000000000000000e+00 0.000000000000000e+00

0.000000000000000e+00 0.000000000000000e+00 0.000000000000000e+00
0.000000000000000e+00 0.000000000000000e+00 0.000000000000000e+00
0.000000000000000e+00 0.000000000000000e+00 0.000000000000000e+00

0.000000000000000e+00 0.000000000000000e+00 0.000000000000000e+00
0.000000000000000e+00 0.000000000000000e+00 0.000000000000000e+00
0.000000000000000e+00 0.000000000000000e+00 0.000000000000000e+00

0.000000000000000e+00 0.000000000000000e+00 0.000000000000000e+00
0.000000000000000e+00 0.000000000000000e+00 0.000000000000000e+00
0.000000000000000e+00 0.000000000000000e+00 0.000000000000000e+00

0.000000000000000e+00 0.000000000000000e+00 0.000000000000000e+00
0.000000000000000e+00 0.000000000000000e+00 0.000000000000000e+00
0.000000000000000e+00 0.000000000000000e+00 0.000000000000000e+00

0.000000000000000e+00 0.000000000000000e+00 0.000000000000000e+00
0.000000000000000e+00 0.000000000000000e+00 0.000000000000000e+00
0.000000000000000e+00 0.000000000000000e+00 0.000000000000000e+00

0.000000000000000e+00 0.000000000000000e+00 0.000000000000000e+00
0.000000000000000e+00 0.000000000000000e+00 0.000000000000000e+00
0.000000000000000e+00 0.000000000000000e+00 0.000000000000000e+00

0.000000000000000e+00 0.000000000000000e+00 0.000000000000000e+00
0.000000000000000e+00 0.000000000000000e+00 0.000000000000000e+00
0.000000000000000e+00 0.000000000000000e+00 0.000000000000000e+00

0.000000000000000e+00 0.000000000000000e+00 0.000000000000000e+00
0.000000000000000e+00 0.000000000000000e+00 0.000000000000000e+00
0.000000000000000e+00 0.000000000000000e+00 0.000000000000000e+00

0.000000000000000e+00 0.000000000000000e+00 0.000000000000000e+00
0.000000000000000e+00 0.000000000000000e+00 0.000000000000000e+00
0.000000000000000e+00 0.000000000000000e+00 0.000000000000000e+00

0.000000000000000e+00 0.000000000000000e+00 0.000000000000000e+00
0.000000000000000e+00 0.000000000000000e+00 0.000000000000000e+00
0.000000000000000e+00 0.000000000000000e+00 0.000000000000000e+00

0.000000000000000e+00 0.000000000000000e+00 0.000000000000000e+00
0.000000000000000e+00 0.000000000000000e+00 0.000000000000000e+00
0.000000000000000e+00 0.000000000000000e+00 0.000000000000000e+00

0.000000000000000e+00 0.000000000000000e+00 0.000000000000000e+00
0.000000000000000e+00 0.000000000000000e+00 0.000000000000000e+00
0.000000000000000e+00 0.000000000000000e+00 0.000000000000000e+00

0.000000000000000e+00 0.000000000000000e+00 0.000000000000000e+00
0.000000000000000e+00 0.000000000000000e+00 0.000000000000000e+00
0.000000000000000e+00 0.000000000000000e+00 0.000000000000000e+00

0.000000000000000e+00 0.000000000000000e+00 0.000000000000000e+00
0.000000000000000e+00 0.000000000000000e+00 0.000000000000000e+00
0.000000000000000e+00 0.000000000000000e+00 0.000000000000000e+00

0.000000000000000e+00 0.000000000000000e+00 0.000000000000000e+00
0.000000000000000e+00 0.000000000000000e+00 0.000000000000000e+00
0.000000000000000e+00 0.000000000000000e+00 0.000000000000000e+00

0.000000000000000e+00 0.000000000000000e+00 0.000000000000000e+00
0.000000000000000e+00 0.000000000000000e+00 0.000000000000000e+00
0.000000000000000e+00 0.000000000000000e+00 0.000000000000000e+00

0.000000000000000e+00 0.000000000000000e+00 0.000000000000000e+00
0.000000000000000e+00 0.000000000000000e+00 0.000000000000000e+00
0.000000000000000e+00 0.000000000000000e+00 0.000000000000000e+00

0.000000000000000e+00 0.000000000000000e+00 0.000000000000000e+00
0.000000000000000e+00 0.000000000000000e+00 0.000000000000000e+00
0.000000000000000e+00 0.000000000000000e+00 0.000000000000000e+00

0.000000000000000e+00 0.000000000000000e+00 0.000000000000000e+00
0.000000000000000e+00 0.000000000000000e+00 0.000000000000000e+00
0.000000000000000e+00 0.000000000000000e+00 0.000000000000000e+00

0.000000000000000e+00 0.000000000000000e+00 0.000000000000000e+00
0.000000000000000e+00 0.000000000000000e+00 0.000000000000000e+00
0.000000000000000e+00 0.000000000000000e+00 0.000000000000000e+00

0.000000000000000e+00 0.000000000000000e+00 0.000000000000000e+00
0.000000000000000e+00 0.000000000000000e+00 0.000000000000000e+00
0.000000000000000e+00 0.000000000000000e+00 0.000000000000000e+00

0.000000000000000e+00 0.000000000000000e+00 0.000000000000000e+00
0.000000000000000e+00 0.000000000000000e+00 0.000000000000000e+00
0.000000000000000e+00 0.000000000000000e+00 0.000000000000000e+00

0.000000000000000e+00 0.000000000000000e+00 0.000000000000000e+00
0.000000000000000e+00 0.000000000000000e+00 0.000000000000000e+00
0.000000000000000e+00 0.000000000000000e+00 0.000000000000000e+00

0.000000000000000e+00 0.000000000000000e+00 0.000000000000000e+00
0.000000000000000e+00 0.000000000000000e+00 0.000000000000000e+00
0.000000000000000e+00 0.000000000000000e+00 0.000000000000000e+00

0.000000000000000e+00 0.000000000000000e+00 0.000000000000000e+00
0.000000000000000e+00 0.000000000000000e+00 0.000000000000000e+00
0.000000000000000e+00 0.000000000000000e+00 0.000000000000000e+00

0.000000000000000e+00 0.000000000000000e+00 0.000000000000000e+00
0.000000000000000e+00 0.000000000000000e+00 0.000000000000000e+00
0.000000000000000e+00 0.000000000000000e+00 0.000000000000000e+00

0.000000000000000e+00 0.000000000000000e+00 0.000000000000000e+00
0.000000000000000e+00 0.000000000000000e+00 0.000000000000000e+00
0.000000000000000e+00 0.000000000000000e+00 0.000000000000000e+00

0.000000000000000e+00 0.000000000000000e+00 0.000000000000000e+00
0.000000000000000e+00 0.000000000000000e+00 0.000000000000000e+00
0.000000000000000e+00 0.000000000000000e+00 0.000000000000000e+00

-6.164716267001201e-04  4.148898185104916e-01 -7.275760897778827e-04
 4.148898185104916e-01 -1.556976517973482e-04  1.854837676910438e-02
-7.275760897778827e-04  1.854837676910438e-02  7.020848488138544e-04

-3.765932119638476e-03  4.294527770585300e-01  3.269172499164150e-04
 4.294527770585300e-01 -1.024564191621897e-03  5.036310285206460e-02
 3.269172499164150e-04  5.036310285206460e-02 -1.594108016552111e-03

-3.832090623165735e-03  4.139246409340937e-01 -9.423718128864340e-04
 4.139246409340937e-01  1.171953235772994e-04 -2.793203576472450e-02
-9.423718128864340e-04 -2.793203576472450e-02 -3.298710184212298e-03

-6.150373636756279e-03  3.326996519146299e-01 -2.457627258487124e-03
 3.326996519146299e-01  1.351053520416202e-03 -1.051851922757626e-01
-2.457627258487124e-03 -1.051851922757626e-01 -4.713929110016781e-03

-7.532962763197201e-03  3.001480787988739e-01 -3.464874180446046e-03
 3.001480787988739e-01  3.005598952978518e-03 -1.411365850733119e-01
-3.464874180446046e-03 -1.411365850733119e-01 -4.555273904369951e-03

-8.308519169976393e-03  2.964216901984294e-01 -3.567596089316084e-03
 2.964216901984294e-01  4.220603447157465e-03 -1.324514757930514e-01
-3.567596089316084e-03 -1.324514757930514e-01 -3.654960087420632e-03

-8.803400618114462e-03  3.149890962759514e-01 -3.625444153850944e-03
 3.149890962759514e-01  4.942198937944612e-03 -1.020497169360362e-01
-3.625444153850944e-03 -1.020497169360362e-01 -3.040403842542901e-03

-5.834836631644529e-03  3.523881679999222e-01 -4.974495660899518e-03
 3.523881679999222e-01  4.934481314724257e-03 -6.431291938769215e-02
-4.974495660899518e-03 -6.431291938769215e-02 -3.011418008337057e-03

-3.088832269649490e-03  3.927643063948064e-01 -4.238025944760503e-03
 3.927643063948064e-01  3.490505361277443e-03 -2.762140876241242e-02
-4.238025944760503e-03 -2.762140876241242e-02 -1.971106485462081e-03

-3.358873418259775e-03  3.901069714926671e-01 -1.918350040690013e-03
 3.901069714926671e-01  2.362985510016932e-03  6.411812421316100e-03
-1.918350040690013e-03  6.411812421316100e-03 -6.503517364721416e-04

-3.113735843185976e-03  4.038030834312064e-01 -8.035032758957386e-04
 4.038030834312064e-01  1.467869047077167e-03  3.899894667018143e-02
-8.035032758957386e-04  3.899894667018143e-02 -1.247502225496812e-04

-3.006226270992659e-03  3.655251593678612e-01 -1.357720324666645e-04
 3.655251593678612e-01  8.508459883065093e-04  7.714580556872694e-02
-1.357720324666645e-04  7.714580556872694e-02 -2.918756028284247e-04

-3.938145541644255e-03  3.040254707252921e-01  3.604380391719399e-04
 3.040254707252921e-01  3.364842336370892e-04  1.280027509451930e-01
 3.604380391719399e-04  1.280027509451930e-01 -8.251313909484499e-04

-3.558127502402348e-03  3.610752302455169e-01  2.585190165144432e-04
 3.610752302455169e-01 -4.782453354104182e-04  1.124315081946583e-01
 2.585190165144432e-04  1.124315081946583e-01 -1.188928551051998e-03

-2.723864609381340e-03  4.067959248836190e-01  3.075961839261317e-05
 4.067959248836190e-01 -7.389142887521280e-04  6.830877645496423e-02
 3.075961839261317e-05  6.830877645496423e-02 -1.595219986297984e-03

-2.665239348592096e-03  4.152423953891428e-01 -2.998068943508629e-04
 4.152423953891428e-01 -5.263759213928457e-04  2.177776692462772e-02
-2.998068943508629e-04  2.177776692462772e-02 -1.975052791457299e-03

-4.979856951694405e-03  4.052571684951388e-01 -1.210437823424990e-03
 4.052571684951388e-01 -1.715788288851022e-04 -2.903342972778675e-02
-1.210437823424990e-03 -2.903342972778675e-02 -4.438152909484390e-03

-9.010265645750016e-03  3.721089001531615e-01 -3.358513551689004e-03
 3.721089001531615e-01  7.744909302353552e-04 -8.382304096881081e-02
-3.358513551689004e-03 -8.382304096881081e-02 -7.540200762992004e-03

-7.703754699969713e-03  3.286294560149950e-01 -4.290039192865581e-03
 3.286294560149950e-01  3.127319794197889e-03 -1.274472295543703e-01
-4.290039192865581e-03 -1.274472295543703e-01 -6.557888160992648e-03

-4.867113479406935e-03  3.004402760610819e-01 -3.650961136416271e-03
 3.004402760610819e-01  4.450698473268151e-03 -1.371079319852152e-01
-3.650961136416271e-03 -1.371079319852152e-01 -4.397861303849311e-03

-7.568147217423059e-03  3.245474088729446e-01 -3.089846991444198e-03
 3.245474088729446e-01  4.611484283555928e-03 -1.072818661651108e-01
-3.089846991444198e-03 -1.072818661651108e-01 -2.982805881190753e-03

-8.378666241753903e-03  3.589495510497954e-01 -3.259010636697852e-03
 3.589495510497954e-01  4.907338699210197e-03 -7.138814567316715e-02
-3.259010636697852e-03 -7.138814567316715e-02 -2.324829515647016e-03

-6.760185415845945e-03  3.775954361217863e-01 -3.914300168991563e-03
 3.775954361217863e-01  4.477617656806771e-03 -3.875679695540034e-02
-3.914300168991563e-03 -3.875679695540034e-02 -1.845650376943605e-03

-6.303524941128516e-03  3.601505784019441e-01 -4.685564896472904e-03
 3.601505784019441e-01  3.450303500000969e-03 -4.865932722688195e-03
-4.685564896472904e-03 -4.865932722688195e-03 -7.936860092200830e-04

-4.890224480848359e-03  3.493466929784302e-01 -4.417259881303886e-03
 3.493466929784302e-01  1.619275883688202e-03  3.684443664587717e-02
-4.417259881303886e-03  3.684443664587717e-02  4.192739721740110e-04

-1.403236130833740e-03  3.703206253673211e-01 -2.024684641104741e-03
 3.703206253673211e-01  2.712807200279240e-04  7.045515014353339e-02
-2.024684641104741e-03  7.045515014353339e-02  2.917900699686875e-04

 1.351505764257760e-03  2.779438760334099e-01 -2.230594561287126e-04
 2.779438760334099e-01  2.996391706870250e-04  1.230885222625085e-01
-2.230594561287126e-04  1.230885222625085e-01 -7.563554900763438e-04

 2.143253678473388e-03  2.533889586862846e-01  3.806990165244133e-04
 2.533889586862846e-01  6.159104386838795e-04  1.492719235624033e-01
 3.806990165244133e-04  1.492719235624033e-01 -1.448292972982096e-03

-2.761229709157806e-03  3.436350765017977e-01  1.125643918829221e-03
 3.436350765017977e-01  1.930005687826329e-04  1.232852453266035e-01
 1.125643918829221e-03  1.232852453266035e-01 -2.499350010679978e-03

-9.958943240905767e-03  3.310803852602562e-01  2.828971916803172e-03
 3.310803852602562e-01 -1.246761564843968e-03  1.188846484509248e-01
 2.828971916803172e-03  1.188846484509248e-01 -6.671070566062200e-03


CELL_DATA 29
SCALARS dislocation_index int
LOOKUP_TABLE default
0
1
2
3
4
5
6
7
8
9
10
11
12
13
14
15
16
17
18
19
20
21
22
23
24
25
26
27
28

VECTORS burgers_vector_global double
-2.480271559999999e+00 -1.581061680000000e-06  1.483537390000000e-05
 2.480271559999999e+00  1.581061680000000e-06 -1.483537390000000e-05
-2.480271559999999e+00 -1.581061680000000e-06  1.483537390000000e-05
-2.480271559999999e+00 -1.581061680000000e-06  1.483537390000000e-05
-2.480271559999999e+00 -1.581061680000000e-06  1.483537390000000e-05
-2.480271559999999e+00 -1.581061680000000e-06  1.483537390000000e-05
-2.480271559999999e+00 -1.581061680000000e-06  1.483537390000000e-05
-2.480271559999999e+00 -1.581061680000000e-06  1.483537390000000e-05
-2.480271559999999e+00 -1.581061680000000e-06  1.483537390000000e-05
-2.480271559999999e+00 -1.581061680000000e-06  1.483537390000000e-05
-2.480271559999999e+00 -1.581061680000000e-06  1.483537390000000e-05
-2.480271559999999e+00 -1.581061680000000e-06  1.483537390000000e-05
-2.480271559999999e+00 -1.581061680000000e-06  1.483537390000000e-05
-2.480271559999999e+00 -1.581061680000000e-06  1.483537390000000e-05
-2.480271559999999e+00 -1.581061680000000e-06  1.483537390000000e-05
-2.480271559999999e+00 -1.581061680000000e-06  1.483537390000000e-05
-2.480271559999999e+00 -1.581061680000000e-06  1.483537390000000e-05
-2.480271559999999e+00 -1.581061680000000e-06  1.483537390000000e-05
-2.480271559999999e+00 -1.581061680000000e-06  1.483537390000000e-05
-2.480271559999999e+00 -1.581061680000000e-06  1.483537390000000e-05
-2.480271559999999e+00 -1.581061680000000e-06  1.483537390000000e-05
-2.480271559999999e+00 -1.581061680000000e-06  1.483537390000000e-05
-2.480271559999999e+00 -1.581061680000000e-06  1.483537390000000e-05
-2.480271559999999e+00 -1.581061680000000e-06  1.483537390000000e-05
-2.480271559999999e+00 -1.581061680000000e-06  1.483537390000000e-05
-2.480271559999999e+00 -1.581061680000000e-06  1.483537390000000e-05
-2.480271559999999e+00 -1.581061680000000e-06  1.483537390000000e-05
-2.480271559999999e+00 -1.581061680000000e-06  1.483537390000000e-05
-2.480271559999999e+00 -1.581061680000000e-06  1.483537390000000e-05

VECTORS burgers_vector_local double
-5.015120650106114e-01 -5.015180368568252e-01  5.015112819270853e-01
 5.015120650106114e-01  5.015180368568252e-01 -5.015112819270853e-01
-5.015120650106114e-01 -5.015180368568252e-01  5.015112819270853e-01
-5.015120650106114e-01 -5.015180368568252e-01  5.015112819270853e-01
-5.015120650106114e-01 -5.015180368568252e-01  5.015112819270853e-01
-5.015120650106114e-01 -5.015180368568252e-01  5.015112819270853e-01
-5.015120650106114e-01 -5.015180368568252e-01  5.015112819270853e-01
-5.015120650106114e-01 -5.015180368568252e-01  5.015112819270853e-01
-5.015120650106114e-01 -5.015180368568252e-01  5.015112819270853e-01
-5.015120650106114e-01 -5.015180368568252e-01  5.015112819270853e-01
-5.015120650106114e-01 -5.015180368568252e-01  5.015112819270853e-01
-5.015120650106114e-01 -5.015180368568252e-01  5.015112819270853e-01
-5.015120650106114e-01 -5.015180368568252e-01  5.015112819270853e-01
-5.015120650106114e-01 -5.015180368568252e-01  5.015112819270853e-01
-5.015120650106114e-01 -5.015180368568252e-01  5.015112819270853e-01
-5.015120650106114e-01 -5.015180368568252e-01  5.015112819270853e-01
-5.015120650106114e-01 -5.015180368568252e-01  5.015112819270853e-01
-5.015120650106114e-01 -5.015180368568252e-01  5.015112819270853e-01
-5.015120650106114e-01 -5.015180368568252e-01  5.015112819270853e-01
-5.015120650106114e-01 -5.015180368568252e-01  5.015112819270853e-01
-5.015120650106114e-01 -5.015180368568252e-01  5.015112819270853e-01
-5.015120650106114e-01 -5.015180368568252e-01  5.015112819270853e-01
-5.015120650106114e-01 -5.015180368568252e-01  5.015112819270853e-01
-5.015120650106114e-01 -5.015180368568252e-01  5.015112819270853e-01
-5.015120650106114e-01 -5.015180368568252e-01  5.015112819270853e-01
-5.015120650106114e-01 -5.015180368568252e-01  5.015112819270853e-01
-5.015120650106114e-01 -5.015180368568252e-01  5.015112819270853e-01
-5.015120650106114e-01 -5.015180368568252e-01  5.015112819270853e-01
-5.015120650106114e-01 -5.015180368568252e-01  5.015112819270853e-01
