# vtk DataFile Version 3.0
# Dislocation lines converted from MoDELib file
ASCII
DATASET UNSTRUCTURED_GRID
POINTS 214 double
4.097709388900001e+02 1.231928013400000e+02 2.376156215900000e+02
4.092070166600000e+02 1.231680090700000e+02 2.414241966600000e+02
4.080496768800000e+02 1.231588366600000e+02 2.467450696800000e+02
4.061776718600000e+02 1.231406223200000e+02 2.518147118200000e+02
4.046523289900000e+02 1.232307819000000e+02 2.565202438800000e+02
4.038440564200001e+02 1.231352491200000e+02 2.610498942200000e+02
4.030069592000000e+02 1.230124724700000e+02 2.658613912300000e+02
4.006235295100001e+02 1.231734354100000e+02 2.713395999400000e+02
3.967668824600000e+02 1.232682674700000e+02 2.774823383700000e+02
3.926703572500000e+02 1.232040523100000e+02 2.836320830100000e+02
3.880400029400000e+02 1.232336094400000e+02 2.889598029800000e+02
3.825511830400001e+02 1.231914314800000e+02 2.931854530100000e+02
3.778004963500001e+02 1.231712102900000e+02 2.969554583000000e+02
3.740510939499999e+02 1.233134117300000e+02 3.010512052100000e+02
3.693554447200000e+02 1.233837073800000e+02 3.051518969300000e+02
3.638905667000000e+02 1.234041119900000e+02 3.086708965700001e+02
3.583383938100001e+02 1.233720613200000e+02 3.118304820800000e+02
3.525660540500000e+02 1.232512014700000e+02 3.145384646900000e+02
3.467250510000000e+02 1.231377062300000e+02 3.166299723500000e+02
3.410255684300000e+02 1.230634661300000e+02 3.182578322100000e+02
3.356078824900000e+02 1.232225694500000e+02 3.196309451300000e+02
3.298782688400000e+02 1.233933489400000e+02 3.214547244900000e+02
3.238269451800001e+02 1.233011745800000e+02 3.238214561300000e+02
3.179476300400000e+02 1.232605654900000e+02 3.258348317700000e+02
3.121811620200000e+02 1.234108304000000e+02 3.269652645100000e+02
3.063452627400000e+02 1.236471412300000e+02 3.280610250900000e+02
3.003976124100000e+02 1.235771512900000e+02 3.298071666400000e+02
2.942080318000001e+02 1.231928218300000e+02 3.311006101700000e+02
2.879405106400000e+02 1.232124738100000e+02 3.315600974700001e+02
2.816859494700000e+02 1.235718264300000e+02 3.319618462800000e+02
2.750839711800000e+02 1.237571859700000e+02 3.322734587800000e+02
2.683516661300000e+02 1.237524144800000e+02 3.323475838700000e+02
2.617301184300000e+02 1.237267439700000e+02 3.323977395800000e+02
2.550990471500000e+02 1.238279890200000e+02 3.324798086800000e+02
2.486721430900000e+02 1.238033738900000e+02 3.323666228200000e+02
2.426495531800000e+02 1.235105597600000e+02 3.318178421000001e+02
2.368908393600000e+02 1.235383113900000e+02 3.309585153500000e+02
2.310863821100000e+02 1.237977187300000e+02 3.300350981400000e+02
2.250229786000000e+02 1.237089407900000e+02 3.291393163400000e+02
2.190656584500000e+02 1.236765148100000e+02 3.281617933300001e+02
2.131048662400000e+02 1.236409402300000e+02 3.272375082500000e+02
2.070438251000000e+02 1.234433525000000e+02 3.263769769700000e+02
2.015270449300000e+02 1.234691770900000e+02 3.251976167600000e+02
1.958777472500000e+02 1.234238158200000e+02 3.243329676700001e+02
1.898716562600000e+02 1.234799654800000e+02 3.238378969400001e+02
1.845889177700000e+02 1.238030427700000e+02 3.226177077800000e+02
1.797317198500000e+02 1.237598026400000e+02 3.209804621700000e+02
1.746944386000000e+02 1.236229583600000e+02 3.195658700500000e+02
1.696414934800000e+02 1.238045299300000e+02 3.181400827700000e+02
1.647134976600000e+02 1.237693797400000e+02 3.163984331300000e+02
1.599835204600000e+02 1.236740418900000e+02 3.147736118600000e+02
1.556328765300000e+02 1.237786841500000e+02 3.130851124000000e+02
1.511624814200000e+02 1.238011520400000e+02 3.109096798100000e+02
1.460118530500000e+02 1.238120119400000e+02 3.092084670800000e+02
1.413480349600000e+02 1.238279428800000e+02 3.072617294600000e+02
1.380809069200000e+02 1.239772215000000e+02 3.040746984500000e+02
1.350020291300000e+02 1.240863947700000e+02 3.010169815100000e+02
1.309886467200000e+02 1.239977695200000e+02 2.985158281800001e+02
1.270535629300000e+02 1.240937125600000e+02 2.957106329400000e+02
1.235603429200000e+02 1.241880233600000e+02 2.923880233200001e+02
1.202604837200000e+02 1.241576760000000e+02 2.886731461500000e+02
1.179219318200000e+02 1.242117872300000e+02 2.849358670000000e+02
1.156674796900000e+02 1.242743082900000e+02 2.812529463200000e+02
1.132604439900000e+02 1.242474164300000e+02 2.772626353100000e+02
1.115496759600000e+02 1.241795431300000e+02 2.729780689500000e+02
1.100321266600000e+02 1.242224696700000e+02 2.684611564200000e+02
1.081630487000000e+02 1.242375404300000e+02 2.640696767200000e+02
1.061717218700000e+02 1.241565510100000e+02 2.603267796700000e+02
1.048416906900000e+02 1.241861943000000e+02 2.565147668600001e+02
1.036643282800000e+02 1.242837647600000e+02 2.523450361700000e+02
1.022292931900000e+02 1.242659378200000e+02 2.483858697900000e+02
1.011676163600000e+02 1.242406484900000e+02 2.443197474100000e+02
1.000292069400000e+02 1.242263819600000e+02 2.401908335300000e+02
9.925112932000000e+01 1.241803162300000e+02 2.359779777900000e+02
9.898794203999999e+01 1.242089249400000e+02 2.314940798400000e+02
9.795914807000001e+01 1.242720516400000e+02 2.273411763900000e+02
9.658359195000001e+01 1.243894470100000e+02 2.232172754000000e+02
9.587360675000001e+01 1.243471247200000e+02 2.185926340500000e+02
9.593683031000000e+01 1.242049474200000e+02 2.140178810800000e+02
9.645806412000000e+01 1.242524738900000e+02 2.094690510900000e+02
9.683370271000000e+01 1.242895832500000e+02 2.047666933700000e+02
9.681033721999999e+01 1.242973828800000e+02 2.000077083800000e+02
9.646237203000001e+01 1.243118611300000e+02 1.951561048600000e+02
9.697029096000001e+01 1.242355854400000e+02 1.901045422000000e+02
9.877776161000000e+01 1.242704861600000e+02 1.846264638900000e+02
1.000507095900000e+02 1.245676612500000e+02 1.793045752100000e+02
1.010408604100000e+02 1.246781320900000e+02 1.739762832300000e+02
1.026681288800000e+02 1.244246966100000e+02 1.685163820200000e+02
1.040350226000000e+02 1.242390048900000e+02 1.636957705500000e+02
1.059045166500000e+02 1.241745408200000e+02 1.588923378000000e+02
1.088385507000000e+02 1.242365171300000e+02 1.532534512500000e+02
1.118112694000000e+02 1.243219101300000e+02 1.472716128600000e+02
1.153755101400000e+02 1.241787242200000e+02 1.418818154400000e+02
1.199517271000000e+02 1.240375895600000e+02 1.368978483500000e+02
1.247738174400000e+02 1.241874791400000e+02 1.318367768300000e+02
1.298201655700000e+02 1.244101392400000e+02 1.273758141100000e+02
1.351280197400000e+02 1.243141573300000e+02 1.237541578700000e+02
1.404826437400000e+02 1.241230921800000e+02 1.204006963600000e+02
1.461784027700000e+02 1.241192386000000e+02 1.175737658900000e+02
1.523557921400000e+02 1.241673120200000e+02 1.152943983900000e+02
1.585299690800000e+02 1.241212183600000e+02 1.129766985000000e+02
1.644127846500000e+02 1.239459545900000e+02 1.107318499000000e+02
1.701924550500000e+02 1.239190701600000e+02 1.085191474800000e+02
1.760339044000000e+02 1.241262686200000e+02 1.061623453100000e+02
1.818307443000000e+02 1.241336787000000e+02 1.041825543600000e+02
1.871824204800000e+02 1.239312110500000e+02 1.024258029200000e+02
1.924650612000000e+02 1.238984396800000e+02 1.007093853800000e+02
1.985343342400000e+02 1.241391381600000e+02 9.966723641000000e+01
2.046277242400000e+02 1.242074429900000e+02 9.887137841000001e+01
2.103840049300000e+02 1.238730290400000e+02 9.809435763000003e+01
2.163751244500000e+02 1.238077258500000e+02 9.732653572000001e+01
2.221968804900000e+02 1.239281896900000e+02 9.618635922999999e+01
2.281274939700000e+02 1.237780389300000e+02 9.547689165000000e+01
2.346616310400000e+02 1.236266924200000e+02 9.542402909000000e+01
2.415054226000000e+02 1.235919542700000e+02 9.545742534999999e+01
2.478705757600000e+02 1.236208677200000e+02 9.533191898000000e+01
2.535226073000000e+02 1.235831492500000e+02 9.520858402000002e+01
2.592308575300000e+02 1.236834126800000e+02 9.568942167000003e+01
2.650146528400000e+02 1.239254849900000e+02 9.655148641000000e+01
2.708277904800000e+02 1.236739886700000e+02 9.721691268000001e+01
2.770391012500000e+02 1.235088269400000e+02 9.800429138000000e+01
2.835459573300000e+02 1.239406644900000e+02 9.875879878000002e+01
2.897218032900001e+02 1.239445572200000e+02 9.916194860000000e+01
2.952919689500000e+02 1.235640626800000e+02 9.993038794000000e+01
3.009859114500000e+02 1.236500750900000e+02 1.007499022200000e+02
3.066629555800000e+02 1.237993694700000e+02 1.016250879500000e+02
3.119591288200000e+02 1.237620635500000e+02 1.029040341500000e+02
3.175272450500000e+02 1.236621990200000e+02 1.038795457700000e+02
3.229958782300000e+02 1.234440710500000e+02 1.051913749500000e+02
3.281324753100001e+02 1.234849038800000e+02 1.069790428900000e+02
3.333015597200000e+02 1.237009315900000e+02 1.085953938000000e+02
3.385252876900000e+02 1.237603190700000e+02 1.102719577200000e+02
3.434962848800000e+02 1.236111519100000e+02 1.121423218900000e+02
3.476413899400000e+02 1.233289034000000e+02 1.142997605400000e+02
3.511802720500000e+02 1.232677682200000e+02 1.167426274100000e+02
3.548343059700001e+02 1.234503174600000e+02 1.192961832100000e+02
3.590285049300000e+02 1.234589102600000e+02 1.216047500700000e+02
3.634176531400001e+02 1.233168773000000e+02 1.237223729500000e+02
3.672900433500000e+02 1.232543348100000e+02 1.262104523800000e+02
3.708470871600001e+02 1.232925249000000e+02 1.289866488100000e+02
3.744107175600000e+02 1.234200614300000e+02 1.318684030500000e+02
3.772087586800000e+02 1.233576639200000e+02 1.350789082200000e+02
3.798886357400000e+02 1.231090286000000e+02 1.383617297400000e+02
3.833409704900000e+02 1.230898480300000e+02 1.414309904900000e+02
3.865430441900000e+02 1.231647540700000e+02 1.443855723700000e+02
3.893721515900000e+02 1.231741070500000e+02 1.476450259800000e+02
3.921441607600000e+02 1.231779173800000e+02 1.515699029700000e+02
3.943743261600000e+02 1.230699772200000e+02 1.556616078900000e+02
3.959044190100000e+02 1.230545895300000e+02 1.595869612700000e+02
3.971739357000000e+02 1.230640757200000e+02 1.636678834200000e+02
3.990967718200000e+02 1.229889051700000e+02 1.675250327300000e+02
4.014765788600001e+02 1.230600193000000e+02 1.709374176000000e+02
4.030531682600001e+02 1.231827702000000e+02 1.752444937200000e+02
4.039691469600000e+02 1.231713567100000e+02 1.804242547100000e+02
4.049438451000000e+02 1.231279205200000e+02 1.849636341400000e+02
4.062860760700000e+02 1.231230865600000e+02 1.888512083400000e+02
4.073946971799999e+02 1.230891214900000e+02 1.928592911600000e+02
4.074811049000000e+02 1.231176409400000e+02 1.974272006400000e+02
4.074874782900001e+02 1.230752447500000e+02 2.025121168500000e+02
4.080317993100001e+02 1.230168888800000e+02 2.074743222800000e+02
4.086985748100001e+02 1.230884278100000e+02 2.120858438100000e+02
4.091853911500000e+02 1.230432573400000e+02 2.168321010200000e+02
4.093564963300000e+02 1.229506862700000e+02 2.219429917800000e+02
4.094705254800000e+02 1.229456259800000e+02 2.273689322900000e+02
4.097153106700000e+02 1.232065830500000e+02 2.319315669100000e+02
4.099180496800000e+02 1.234151227700000e+02 2.344129615700000e+02
4.096769518516667e+02 1.231886692950000e+02 2.382503841016667e+02
4.094889777750001e+02 1.231804052050000e+02 2.395199091250000e+02
4.093010036983334e+02 1.231721411150000e+02 2.407894341483334e+02
4.090141266966667e+02 1.231664803350000e+02 2.423110088300000e+02
4.086283467700000e+02 1.231634228650000e+02 2.440846331700000e+02
4.082425668433333e+02 1.231603653950000e+02 2.458582575100000e+02
4.077376760433333e+02 1.231558009366667e+02 2.475900100366667e+02
4.071136743700000e+02 1.231497294900000e+02 2.492798907500000e+02
4.064896726966667e+02 1.231436580433334e+02 2.509697714633334e+02
4.059234480483333e+02 1.231556489166667e+02 2.525989671633333e+02
4.054150004250000e+02 1.231857021100000e+02 2.541674778500000e+02
4.049065528016666e+02 1.232157553033334e+02 2.557359885366667e+02
4.045176168950001e+02 1.232148597700000e+02 2.572751856033333e+02
4.042481927050000e+02 1.231830155100000e+02 2.587850690500000e+02
4.039787685150001e+02 1.231511712500000e+02 2.602949524966667e+02
4.037045402166668e+02 1.231147863450000e+02 2.618518103883333e+02
4.034255078100000e+02 1.230738607950000e+02 2.634556427250000e+02
4.031464754033333e+02 1.230329352450000e+02 2.650594750616666e+02
4.026097209183334e+02 1.230392996266667e+02 2.667744260150000e+02
4.018152443550000e+02 1.230929539400000e+02 2.686004955850000e+02
4.010207677916668e+02 1.231466082533333e+02 2.704265651550000e+02
3.999807550016667e+02 1.231892407533333e+02 2.723633896783334e+02
3.986952059850000e+02 1.232208514400000e+02 2.744109691550000e+02
3.974096569683333e+02 1.232524621266667e+02 2.764585486316666e+02
3.960841282583332e+02 1.232575649433333e+02 2.785072958100000e+02
3.947186198549999e+02 1.232361598900000e+02 2.805572106900000e+02
3.933531114516667e+02 1.232147548366666e+02 2.826071255700000e+02
3.918986315316668e+02 1.232089784983333e+02 2.845200363383333e+02
3.903551800950000e+02 1.232188308750000e+02 2.862959429950000e+02
3.888117286583334e+02 1.232286832516667e+02 2.880718496516667e+02
3.871251996233333e+02 1.232265797800000e+02 2.896640779850000e+02
3.852955929900000e+02 1.232125204600000e+02 2.910726279950001e+02
3.834659863566667e+02 1.231984611400000e+02 2.924811780050000e+02
3.817594019250001e+02 1.231880612816667e+02 2.938137872250000e+02
3.801758396950000e+02 1.231813208850000e+02 2.950704556550000e+02
3.785922774650000e+02 1.231745804883334e+02 2.963271240850000e+02
3.771755959500001e+02 1.231949105300000e+02 2.976380827850000e+02
3.759257951500000e+02 1.232423110100000e+02 2.990033317550000e+02
3.746759943500000e+02 1.232897114900000e+02 3.003685807250000e+02
3.732684857450000e+02 1.233251276716667e+02 3.017346538300000e+02
3.717032693350000e+02 1.233485595550000e+02 3.031015510700000e+02
3.701380529250000e+02 1.233719914383333e+02 3.044684483100000e+02
3.684446317166667e+02 1.233871081483334e+02 3.057383968700001e+02
3.666230057100000e+02 1.233939096850000e+02 3.069113967500001e+02
3.648013797033333e+02 1.234007112216667e+02 3.080843966300001e+02
3.629652045516667e+02 1.233987702116667e+02 3.091974941550001e+02
3.611144802550001e+02 1.233880866550000e+02 3.102506893250001e+02
3.592637559583334e+02 1.233774030983333e+02 3.113038844950000e+02

CELLS 16 96
5 0 166 167 168 1
5 1 169 170 171 2
5 2 172 173 174 3
5 3 175 176 177 4
5 4 178 179 180 5
5 5 181 182 183 6
5 6 184 185 186 7
5 7 187 188 189 8
5 8 190 191 192 9
5 9 193 194 195 10
5 10 196 197 198 11
5 11 199 200 201 12
5 12 202 203 204 13
5 13 205 206 207 14
5 14 208 209 210 15
5 15 211 212 213 16

CELL_TYPES 16
4
4
4
4
4
4
4
4
4
4
4
4
4
4
4
4

POINT_DATA 214
VECTORS PK_force double
0.000000000000000e+00 0.000000000000000e+00 0.000000000000000e+00
0.000000000000000e+00 0.000000000000000e+00 0.000000000000000e+00
0.000000000000000e+00 0.000000000000000e+00 0.000000000000000e+00
0.000000000000000e+00 0.000000000000000e+00 0.000000000000000e+00
0.000000000000000e+00 0.000000000000000e+00 0.000000000000000e+00
0.000000000000000e+00 0.000000000000000e+00 0.000000000000000e+00
0.000000000000000e+00 0.000000000000000e+00 0.000000000000000e+00
0.000000000000000e+00 0.000000000000000e+00 0.000000000000000e+00
0.000000000000000e+00 0.000000000000000e+00 0.000000000000000e+00
0.000000000000000e+00 0.000000000000000e+00 0.000000000000000e+00
0.000000000000000e+00 0.000000000000000e+00 0.000000000000000e+00
0.000000000000000e+00 0.000000000000000e+00 0.000000000000000e+00
0.000000000000000e+00 0.000000000000000e+00 0.000000000000000e+00
0.000000000000000e+00 0.000000000000000e+00 0.000000000000000e+00
0.000000000000000e+00 0.000000000000000e+00 0.000000000000000e+00
0.000000000000000e+00 0.000000000000000e+00 0.000000000000000e+00
0.000000000000000e+00 0.000000000000000e+00 0.000000000000000e+00
0.000000000000000e+00 0.000000000000000e+00 0.000000000000000e+00
0.000000000000000e+00 0.000000000000000e+00 0.000000000000000e+00
0.000000000000000e+00 0.000000000000000e+00 0.000000000000000e+00
0.000000000000000e+00 0.000000000000000e+00 0.000000000000000e+00
0.000000000000000e+00 0.000000000000000e+00 0.000000000000000e+00
0.000000000000000e+00 0.000000000000000e+00 0.000000000000000e+00
0.000000000000000e+00 0.000000000000000e+00 0.000000000000000e+00
0.000000000000000e+00 0.000000000000000e+00 0.000000000000000e+00
0.000000000000000e+00 0.000000000000000e+00 0.000000000000000e+00
0.000000000000000e+00 0.000000000000000e+00 0.000000000000000e+00
0.000000000000000e+00 0.000000000000000e+00 0.000000000000000e+00
0.000000000000000e+00 0.000000000000000e+00 0.000000000000000e+00
0.000000000000000e+00 0.000000000000000e+00 0.000000000000000e+00
0.000000000000000e+00 0.000000000000000e+00 0.000000000000000e+00
0.000000000000000e+00 0.000000000000000e+00 0.000000000000000e+00
0.000000000000000e+00 0.000000000000000e+00 0.000000000000000e+00
0.000000000000000e+00 0.000000000000000e+00 0.000000000000000e+00
0.000000000000000e+00 0.000000000000000e+00 0.000000000000000e+00
0.000000000000000e+00 0.000000000000000e+00 0.000000000000000e+00
0.000000000000000e+00 0.000000000000000e+00 0.000000000000000e+00
0.000000000000000e+00 0.000000000000000e+00 0.000000000000000e+00
0.000000000000000e+00 0.000000000000000e+00 0.000000000000000e+00
0.000000000000000e+00 0.000000000000000e+00 0.000000000000000e+00
0.000000000000000e+00 0.000000000000000e+00 0.000000000000000e+00
0.000000000000000e+00 0.000000000000000e+00 0.000000000000000e+00
0.000000000000000e+00 0.000000000000000e+00 0.000000000000000e+00
0.000000000000000e+00 0.000000000000000e+00 0.000000000000000e+00
0.000000000000000e+00 0.000000000000000e+00 0.000000000000000e+00
0.000000000000000e+00 0.000000000000000e+00 0.000000000000000e+00
0.000000000000000e+00 0.000000000000000e+00 0.000000000000000e+00
0.000000000000000e+00 0.000000000000000e+00 0.000000000000000e+00
0.000000000000000e+00 0.000000000000000e+00 0.000000000000000e+00
0.000000000000000e+00 0.000000000000000e+00 0.000000000000000e+00
0.000000000000000e+00 0.000000000000000e+00 0.000000000000000e+00
0.000000000000000e+00 0.000000000000000e+00 0.000000000000000e+00
0.000000000000000e+00 0.000000000000000e+00 0.000000000000000e+00
0.000000000000000e+00 0.000000000000000e+00 0.000000000000000e+00
0.000000000000000e+00 0.000000000000000e+00 0.000000000000000e+00
0.000000000000000e+00 0.000000000000000e+00 0.000000000000000e+00
0.000000000000000e+00 0.000000000000000e+00 0.000000000000000e+00
0.000000000000000e+00 0.000000000000000e+00 0.000000000000000e+00
0.000000000000000e+00 0.000000000000000e+00 0.000000000000000e+00
0.000000000000000e+00 0.000000000000000e+00 0.000000000000000e+00
0.000000000000000e+00 0.000000000000000e+00 0.000000000000000e+00
0.000000000000000e+00 0.000000000000000e+00 0.000000000000000e+00
0.000000000000000e+00 0.000000000000000e+00 0.000000000000000e+00
0.000000000000000e+00 0.000000000000000e+00 0.000000000000000e+00
0.000000000000000e+00 0.000000000000000e+00 0.000000000000000e+00
0.000000000000000e+00 0.000000000000000e+00 0.000000000000000e+00
0.000000000000000e+00 0.000000000000000e+00 0.000000000000000e+00
0.000000000000000e+00 0.000000000000000e+00 0.000000000000000e+00
0.000000000000000e+00 0.000000000000000e+00 0.000000000000000e+00
0.000000000000000e+00 0.000000000000000e+00 0.000000000000000e+00
0.000000000000000e+00 0.000000000000000e+00 0.000000000000000e+00
0.000000000000000e+00 0.000000000000000e+00 0.000000000000000e+00
0.000000000000000e+00 0.000000000000000e+00 0.000000000000000e+00
0.000000000000000e+00 0.000000000000000e+00 0.000000000000000e+00
0.000000000000000e+00 0.000000000000000e+00 0.000000000000000e+00
0.000000000000000e+00 0.000000000000000e+00 0.000000000000000e+00
0.000000000000000e+00 0.000000000000000e+00 0.000000000000000e+00
0.000000000000000e+00 0.000000000000000e+00 0.000000000000000e+00
0.000000000000000e+00 0.000000000000000e+00 0.000000000000000e+00
0.000000000000000e+00 0.000000000000000e+00 0.000000000000000e+00
0.000000000000000e+00 0.000000000000000e+00 0.000000000000000e+00
0.000000000000000e+00 0.000000000000000e+00 0.000000000000000e+00
0.000000000000000e+00 0.000000000000000e+00 0.000000000000000e+00
0.000000000000000e+00 0.000000000000000e+00 0.000000000000000e+00
0.000000000000000e+00 0.000000000000000e+00 0.000000000000000e+00
0.000000000000000e+00 0.000000000000000e+00 0.000000000000000e+00
0.000000000000000e+00 0.000000000000000e+00 0.000000000000000e+00
0.000000000000000e+00 0.000000000000000e+00 0.000000000000000e+00
0.000000000000000e+00 0.000000000000000e+00 0.000000000000000e+00
0.000000000000000e+00 0.000000000000000e+00 0.000000000000000e+00
0.000000000000000e+00 0.000000000000000e+00 0.000000000000000e+00
0.000000000000000e+00 0.000000000000000e+00 0.000000000000000e+00
0.000000000000000e+00 0.000000000000000e+00 0.000000000000000e+00
0.000000000000000e+00 0.000000000000000e+00 0.000000000000000e+00
0.000000000000000e+00 0.000000000000000e+00 0.000000000000000e+00
0.000000000000000e+00 0.000000000000000e+00 0.000000000000000e+00
0.000000000000000e+00 0.000000000000000e+00 0.000000000000000e+00
0.000000000000000e+00 0.000000000000000e+00 0.000000000000000e+00
0.000000000000000e+00 0.000000000000000e+00 0.000000000000000e+00
0.000000000000000e+00 0.000000000000000e+00 0.000000000000000e+00
0.000000000000000e+00 0.000000000000000e+00 0.000000000000000e+00
0.000000000000000e+00 0.000000000000000e+00 0.000000000000000e+00
0.000000000000000e+00 0.000000000000000e+00 0.000000000000000e+00
0.000000000000000e+00 0.000000000000000e+00 0.000000000000000e+00
0.000000000000000e+00 0.000000000000000e+00 0.000000000000000e+00
0.000000000000000e+00 0.000000000000000e+00 0.000000000000000e+00
0.000000000000000e+00 0.000000000000000e+00 0.000000000000000e+00
0.000000000000000e+00 0.000000000000000e+00 0.000000000000000e+00
0.000000000000000e+00 0.000000000000000e+00 0.000000000000000e+00
0.000000000000000e+00 0.000000000000000e+00 0.000000000000000e+00
0.000000000000000e+00 0.000000000000000e+00 0.000000000000000e+00
0.000000000000000e+00 0.000000000000000e+00 0.000000000000000e+00
0.000000000000000e+00 0.000000000000000e+00 0.000000000000000e+00
0.000000000000000e+00 0.000000000000000e+00 0.000000000000000e+00
0.000000000000000e+00 0.000000000000000e+00 0.000000000000000e+00
0.000000000000000e+00 0.000000000000000e+00 0.000000000000000e+00
0.000000000000000e+00 0.000000000000000e+00 0.000000000000000e+00
0.000000000000000e+00 0.000000000000000e+00 0.000000000000000e+00
0.000000000000000e+00 0.000000000000000e+00 0.000000000000000e+00
0.000000000000000e+00 0.000000000000000e+00 0.000000000000000e+00
0.000000000000000e+00 0.000000000000000e+00 0.000000000000000e+00
0.000000000000000e+00 0.000000000000000e+00 0.000000000000000e+00
0.000000000000000e+00 0.000000000000000e+00 0.000000000000000e+00
0.000000000000000e+00 0.000000000000000e+00 0.000000000000000e+00
0.000000000000000e+00 0.000000000000000e+00 0.000000000000000e+00
0.000000000000000e+00 0.000000000000000e+00 0.000000000000000e+00
0.000000000000000e+00 0.000000000000000e+00 0.000000000000000e+00
0.000000000000000e+00 0.000000000000000e+00 0.000000000000000e+00
0.000000000000000e+00 0.000000000000000e+00 0.000000000000000e+00
0.000000000000000e+00 0.000000000000000e+00 0.000000000000000e+00
0.000000000000000e+00 0.000000000000000e+00 0.000000000000000e+00
0.000000000000000e+00 0.000000000000000e+00 0.000000000000000e+00
0.000000000000000e+00 0.000000000000000e+00 0.000000000000000e+00
0.000000000000000e+00 0.000000000000000e+00 0.000000000000000e+00
0.000000000000000e+00 0.000000000000000e+00 0.000000000000000e+00
0.000000000000000e+00 0.000000000000000e+00 0.000000000000000e+00
0.000000000000000e+00 0.000000000000000e+00 0.000000000000000e+00
0.000000000000000e+00 0.000000000000000e+00 0.000000000000000e+00
0.000000000000000e+00 0.000000000000000e+00 0.000000000000000e+00
0.000000000000000e+00 0.000000000000000e+00 0.000000000000000e+00
0.000000000000000e+00 0.000000000000000e+00 0.000000000000000e+00
0.000000000000000e+00 0.000000000000000e+00 0.000000000000000e+00
0.000000000000000e+00 0.000000000000000e+00 0.000000000000000e+00
0.000000000000000e+00 0.000000000000000e+00 0.000000000000000e+00
0.000000000000000e+00 0.000000000000000e+00 0.000000000000000e+00
0.000000000000000e+00 0.000000000000000e+00 0.000000000000000e+00
0.000000000000000e+00 0.000000000000000e+00 0.000000000000000e+00
0.000000000000000e+00 0.000000000000000e+00 0.000000000000000e+00
0.000000000000000e+00 0.000000000000000e+00 0.000000000000000e+00
0.000000000000000e+00 0.000000000000000e+00 0.000000000000000e+00
0.000000000000000e+00 0.000000000000000e+00 0.000000000000000e+00
0.000000000000000e+00 0.000000000000000e+00 0.000000000000000e+00
0.000000000000000e+00 0.000000000000000e+00 0.000000000000000e+00
0.000000000000000e+00 0.000000000000000e+00 0.000000000000000e+00
0.000000000000000e+00 0.000000000000000e+00 0.000000000000000e+00
0.000000000000000e+00 0.000000000000000e+00 0.000000000000000e+00
0.000000000000000e+00 0.000000000000000e+00 0.000000000000000e+00
0.000000000000000e+00 0.000000000000000e+00 0.000000000000000e+00
0.000000000000000e+00 0.000000000000000e+00 0.000000000000000e+00
0.000000000000000e+00 0.000000000000000e+00 0.000000000000000e+00
0.000000000000000e+00 0.000000000000000e+00 0.000000000000000e+00
0.000000000000000e+00 0.000000000000000e+00 0.000000000000000e+00
0.000000000000000e+00 0.000000000000000e+00 0.000000000000000e+00
0.000000000000000e+00 0.000000000000000e+00 0.000000000000000e+00
0.000000000000000e+00 0.000000000000000e+00 0.000000000000000e+00
0.000000000000000e+00 0.000000000000000e+00 0.000000000000000e+00
-1.591638768397600e-03 -1.070168594079717e-02 -3.053319284917782e-04
-1.482180192915712e-03 -1.070402772422289e-02 -2.891400287082716e-04
-1.090051329610762e-03 -1.076064559453033e-02 -2.314474551141221e-04
-1.359910360593360e-03 -1.565749335097536e-02 -3.227844941385440e-04
-1.496441186726625e-03 -1.560230362253531e-02 -3.523860901306345e-04
-8.210349725194770e-04 -1.556389044871657e-02 -2.054126859916241e-04
-4.074820801150614e-04 -2.548150302221381e-02 -2.420165418801563e-04
-7.207712340969811e-04 -2.553887781880962e-02 -3.579071504859810e-04
-6.480573815620017e-04 -2.589546609019606e-02 -3.323381510626840e-04
-2.019963328157956e-03 -2.325667039919921e-02 -2.091846389157112e-04
-1.831663104979055e-03 -2.306554805129055e-02 -1.518073033059108e-04
-2.528131584016807e-03 -2.262727861898077e-02 -3.859715598817935e-04
-1.881682143876035e-05 -1.274438520313114e-02 -2.721436702484550e-04
 1.375014347420882e-04 -1.316143015998923e-02 -2.530458838732807e-04
-4.341293168550921e-04 -1.294256815012947e-02 -3.504319793408902e-04
-9.020298172639322e-04 -1.229039595832959e-02 -4.705521567654230e-04
-1.481930767908839e-03 -1.215433732999643e-02 -5.679706213505071e-04
-9.473778333666564e-04 -1.272645630650253e-02 -4.895688425845024e-04
-5.224679791747089e-03 -2.946442673422685e-02 -1.407390005014412e-03
-6.401909678817997e-03 -2.903722432259557e-02 -1.932125109703639e-03
-5.788761827067680e-03 -2.915352218686085e-02 -1.661942917180123e-03
-4.435594686032305e-03 -3.938780126748233e-02 -2.176764806151289e-03
-4.829927726984019e-03 -3.971630256853455e-02 -2.419270802619798e-03
-4.633035084767132e-03 -3.958314254210664e-02 -2.297709776268774e-03
-2.993152458856896e-03 -4.122282965030422e-02 -2.424272222582515e-03
-3.264231292341368e-03 -4.128786198229083e-02 -2.605524843971069e-03
-2.986364565205348e-03 -4.126736331663595e-02 -2.420215624720675e-03
-3.748266759403812e-03 -4.873889468824616e-02 -2.987248088806379e-03
-4.274516652155691e-03 -4.862872514830558e-02 -3.445226317428399e-03
-3.347659994906145e-03 -4.854526172951104e-02 -2.640152514248000e-03
-1.723796877839577e-03 -5.866524713323167e-02 -2.824652057997874e-03
-2.128764305489190e-03 -5.869366509507712e-02 -3.350959696255603e-03
-1.866112220385731e-03 -5.862898353354990e-02 -3.009147639518101e-03
-1.779930011953191e-03 -5.786198623408653e-02 -2.553292978094145e-03
-1.611569807378668e-03 -5.779782370153274e-02 -2.340793534688984e-03
-2.191984950145983e-03 -5.805428405372436e-02 -3.073566094519598e-03
-4.980156637746644e-03 -5.009490965287369e-02 -2.819764798561588e-03
-4.453784962616376e-03 -4.987852780095716e-02 -2.345416784930757e-03
-4.225422985960854e-03 -4.983479353744785e-02 -2.137883974244310e-03
-3.362636734475774e-03 -5.580893314628413e-02 -2.893813573892910e-03
-4.103113004134636e-03 -5.603155251714196e-02 -3.737907177710512e-03
-3.801648984891146e-03 -5.602391136298073e-02 -3.392835602826346e-03
-2.805780122567819e-03 -6.254265399931672e-02 -3.994626057294000e-03
-3.325384888378316e-03 -6.261034160576599e-02 -4.801160815721411e-03
-3.133837136139224e-03 -6.254161722347677e-02 -4.504092639046720e-03
-2.064873907464097e-03 -6.462602986173749e-02 -4.284057020757546e-03
-1.712070493375920e-03 -6.467301291609723e-02 -3.664570791746147e-03
-9.758851572190852e-04 -6.465592357839280e-02 -2.370737794598106e-03

TENSORS stress double
0.000000000000000e+00 0.000000000000000e+00 0.000000000000000e+00
0.000000000000000e+00 0.000000000000000e+00 0.000000000000000e+00
0.000000000000000e+00 0.000000000000000e+00 0.000000000000000e+00

0.000000000000000e+00 0.000000000000000e+00 0.000000000000000e+00
0.000000000000000e+00 0.000000000000000e+00 0.000000000000000e+00
0.000000000000000e+00 0.000000000000000e+00 0.000000000000000e+00

0.000000000000000e+00 0.000000000000000e+00 0.000000000000000e+00
0.000000000000000e+00 0.000000000000000e+00 0.000000000000000e+00
0.000000000000000e+00 0.000000000000000e+00 0.000000000000000e+00

0.000000000000000e+00 0.000000000000000e+00 0.000000000000000e+00
0.000000000000000e+00 0.000000000000000e+00 0.000000000000000e+00
0.000000000000000e+00 0.000000000000000e+00 0.000000000000000e+00

0.000000000000000e+00 0.000000000000000e+00 0.000000000000000e+00
0.000000000000000e+00 0.000000000000000e+00 0.000000000000000e+00
0.000000000000000e+00 0.000000000000000e+00 0.000000000000000e+00

0.000000000000000e+00 0.000000000000000e+00 0.000000000000000e+00
0.000000000000000e+00 0.000000000000000e+00 0.000000000000000e+00
0.000000000000000e+00 0.000000000000000e+00 0.000000000000000e+00

0.000000000000000e+00 0.000000000000000e+00 0.000000000000000e+00
0.000000000000000e+00 0.000000000000000e+00 0.000000000000000e+00
0.000000000000000e+00 0.000000000000000e+00 0.000000000000000e+00

0.000000000000000e+00 0.000000000000000e+00 0.000000000000000e+00
0.000000000000000e+00 0.000000000000000e+00 0.000000000000000e+00
0.000000000000000e+00 0.000000000000000e+00 0.000000000000000e+00

0.000000000000000e+00 0.000000000000000e+00 0.000000000000000e+00
0.000000000000000e+00 0.000000000000000e+00 0.000000000000000e+00
0.000000000000000e+00 0.000000000000000e+00 0.000000000000000e+00

0.000000000000000e+00 0.000000000000000e+00 0.000000000000000e+00
0.000000000000000e+00 0.000000000000000e+00 0.000000000000000e+00
0.000000000000000e+00 0.000000000000000e+00 0.000000000000000e+00

0.000000000000000e+00 0.000000000000000e+00 0.000000000000000e+00
0.000000000000000e+00 0.000000000000000e+00 0.000000000000000e+00
0.000000000000000e+00 0.000000000000000e+00 0.000000000000000e+00

0.000000000000000e+00 0.000000000000000e+00 0.000000000000000e+00
0.000000000000000e+00 0.000000000000000e+00 0.000000000000000e+00
0.000000000000000e+00 0.000000000000000e+00 0.000000000000000e+00

0.000000000000000e+00 0.000000000000000e+00 0.000000000000000e+00
0.000000000000000e+00 0.000000000000000e+00 0.000000000000000e+00
0.000000000000000e+00 0.000000000000000e+00 0.000000000000000e+00

0.000000000000000e+00 0.000000000000000e+00 0.000000000000000e+00
0.000000000000000e+00 0.000000000000000e+00 0.000000000000000e+00
0.000000000000000e+00 0.000000000000000e+00 0.000000000000000e+00

0.000000000000000e+00 0.000000000000000e+00 0.000000000000000e+00
0.000000000000000e+00 0.000000000000000e+00 0.000000000000000e+00
0.000000000000000e+00 0.000000000000000e+00 0.000000000000000e+00

0.000000000000000e+00 0.000000000000000e+00 0.000000000000000e+00
0.000000000000000e+00 0.000000000000000e+00 0.000000000000000e+00
0.000000000000000e+00 0.000000000000000e+00 0.000000000000000e+00

0.000000000000000e+00 0.000000000000000e+00 0.000000000000000e+00
0.000000000000000e+00 0.000000000000000e+00 0.000000000000000e+00
0.000000000000000e+00 0.000000000000000e+00 0.000000000000000e+00

0.000000000000000e+00 0.000000000000000e+00 0.000000000000000e+00
0.000000000000000e+00 0.000000000000000e+00 0.000000000000000e+00
0.000000000000000e+00 0.000000000000000e+00 0.000000000000000e+00

0.000000000000000e+00 0.000000000000000e+00 0.000000000000000e+00
0.000000000000000e+00 0.000000000000000e+00 0.000000000000000e+00
0.000000000000000e+00 0.000000000000000e+00 0.000000000000000e+00

0.000000000000000e+00 0.000000000000000e+00 0.000000000000000e+00
0.000000000000000e+00 0.000000000000000e+00 0.000000000000000e+00
0.000000000000000e+00 0.000000000000000e+00 0.000000000000000e+00

0.000000000000000e+00 0.000000000000000e+00 0.000000000000000e+00
0.000000000000000e+00 0.000000000000000e+00 0.000000000000000e+00
0.000000000000000e+00 0.000000000000000e+00 0.000000000000000e+00

0.000000000000000e+00 0.000000000000000e+00 0.000000000000000e+00
0.000000000000000e+00 0.000000000000000e+00 0.000000000000000e+00
0.000000000000000e+00 0.000000000000000e+00 0.000000000000000e+00

0.000000000000000e+00 0.000000000000000e+00 0.000000000000000e+00
0.000000000000000e+00 0.000000000000000e+00 0.000000000000000e+00
0.000000000000000e+00 0.000000000000000e+00 0.000000000000000e+00

0.000000000000000e+00 0.000000000000000e+00 0.000000000000000e+00
0.000000000000000e+00 0.000000000000000e+00 0.000000000000000e+00
0.000000000000000e+00 0.000000000000000e+00 0.000000000000000e+00

0.000000000000000e+00 0.000000000000000e+00 0.000000000000000e+00
0.000000000000000e+00 0.000000000000000e+00 0.000000000000000e+00
0.000000000000000e+00 0.000000000000000e+00 0.000000000000000e+00

0.000000000000000e+00 0.000000000000000e+00 0.000000000000000e+00
0.000000000000000e+00 0.000000000000000e+00 0.000000000000000e+00
0.000000000000000e+00 0.000000000000000e+00 0.000000000000000e+00

0.000000000000000e+00 0.000000000000000e+00 0.000000000000000e+00
0.000000000000000e+00 0.000000000000000e+00 0.000000000000000e+00
0.000000000000000e+00 0.000000000000000e+00 0.000000000000000e+00

0.000000000000000e+00 0.000000000000000e+00 0.000000000000000e+00
0.000000000000000e+00 0.000000000000000e+00 0.000000000000000e+00
0.000000000000000e+00 0.000000000000000e+00 0.000000000000000e+00

0.000000000000000e+00 0.000000000000000e+00 0.000000000000000e+00
0.000000000000000e+00 0.000000000000000e+00 0.000000000000000e+00
0.000000000000000e+00 0.000000000000000e+00 0.000000000000000e+00

0.000000000000000e+00 0.000000000000000e+00 0.000000000000000e+00
0.000000000000000e+00 0.000000000000000e+00 0.000000000000000e+00
0.000000000000000e+00 0.000000000000000e+00 0.000000000000000e+00

0.000000000000000e+00 0.000000000000000e+00 0.000000000000000e+00
0.000000000000000e+00 0.000000000000000e+00 0.000000000000000e+00
0.000000000000000e+00 0.000000000000000e+00 0.000000000000000e+00

0.000000000000000e+00 0.000000000000000e+00 0.000000000000000e+00
0.000000000000000e+00 0.000000000000000e+00 0.000000000000000e+00
0.000000000000000e+00 0.000000000000000e+00 0.000000000000000e+00

0.000000000000000e+00 0.000000000000000e+00 0.000000000000000e+00
0.000000000000000e+00 0.000000000000000e+00 0.000000000000000e+00
0.000000000000000e+00 0.000000000000000e+00 0.000000000000000e+00

0.000000000000000e+00 0.000000000000000e+00 0.000000000000000e+00
0.000000000000000e+00 0.000000000000000e+00 0.000000000000000e+00
0.000000000000000e+00 0.000000000000000e+00 0.000000000000000e+00

0.000000000000000e+00 0.000000000000000e+00 0.000000000000000e+00
0.000000000000000e+00 0.000000000000000e+00 0.000000000000000e+00
0.000000000000000e+00 0.000000000000000e+00 0.000000000000000e+00

0.000000000000000e+00 0.000000000000000e+00 0.000000000000000e+00
0.000000000000000e+00 0.000000000000000e+00 0.000000000000000e+00
0.000000000000000e+00 0.000000000000000e+00 0.000000000000000e+00

0.000000000000000e+00 0.000000000000000e+00 0.000000000000000e+00
0.000000000000000e+00 0.000000000000000e+00 0.000000000000000e+00
0.000000000000000e+00 0.000000000000000e+00 0.000000000000000e+00

0.000000000000000e+00 0.000000000000000e+00 0.000000000000000e+00
0.000000000000000e+00 0.000000000000000e+00 0.000000000000000e+00
0.000000000000000e+00 0.000000000000000e+00 0.000000000000000e+00

0.000000000000000e+00 0.000000000000000e+00 0.000000000000000e+00
0.000000000000000e+00 0.000000000000000e+00 0.000000000000000e+00
0.000000000000000e+00 0.000000000000000e+00 0.000000000000000e+00

0.000000000000000e+00 0.000000000000000e+00 0.000000000000000e+00
0.000000000000000e+00 0.000000000000000e+00 0.000000000000000e+00
0.000000000000000e+00 0.000000000000000e+00 0.000000000000000e+00

0.000000000000000e+00 0.000000000000000e+00 0.000000000000000e+00
0.000000000000000e+00 0.000000000000000e+00 0.000000000000000e+00
0.000000000000000e+00 0.000000000000000e+00 0.000000000000000e+00

0.000000000000000e+00 0.000000000000000e+00 0.000000000000000e+00
0.000000000000000e+00 0.000000000000000e+00 0.000000000000000e+00
0.000000000000000e+00 0.000000000000000e+00 0.000000000000000e+00

0.000000000000000e+00 0.000000000000000e+00 0.000000000000000e+00
0.000000000000000e+00 0.000000000000000e+00 0.000000000000000e+00
0.000000000000000e+00 0.000000000000000e+00 0.000000000000000e+00

0.000000000000000e+00 0.000000000000000e+00 0.000000000000000e+00
0.000000000000000e+00 0.000000000000000e+00 0.000000000000000e+00
0.000000000000000e+00 0.000000000000000e+00 0.000000000000000e+00

0.000000000000000e+00 0.000000000000000e+00 0.000000000000000e+00
0.000000000000000e+00 0.000000000000000e+00 0.000000000000000e+00
0.000000000000000e+00 0.000000000000000e+00 0.000000000000000e+00

0.000000000000000e+00 0.000000000000000e+00 0.000000000000000e+00
0.000000000000000e+00 0.000000000000000e+00 0.000000000000000e+00
0.000000000000000e+00 0.000000000000000e+00 0.000000000000000e+00

0.000000000000000e+00 0.000000000000000e+00 0.000000000000000e+00
0.000000000000000e+00 0.000000000000000e+00 0.000000000000000e+00
0.000000000000000e+00 0.000000000000000e+00 0.000000000000000e+00

0.000000000000000e+00 0.000000000000000e+00 0.000000000000000e+00
0.000000000000000e+00 0.000000000000000e+00 0.000000000000000e+00
0.000000000000000e+00 0.000000000000000e+00 0.000000000000000e+00

0.000000000000000e+00 0.000000000000000e+00 0.000000000000000e+00
0.000000000000000e+00 0.000000000000000e+00 0.000000000000000e+00
0.000000000000000e+00 0.000000000000000e+00 0.000000000000000e+00

0.000000000000000e+00 0.000000000000000e+00 0.000000000000000e+00
0.000000000000000e+00 0.000000000000000e+00 0.000000000000000e+00
0.000000000000000e+00 0.000000000000000e+00 0.000000000000000e+00

0.000000000000000e+00 0.000000000000000e+00 0.000000000000000e+00
0.000000000000000e+00 0.000000000000000e+00 0.000000000000000e+00
0.000000000000000e+00 0.000000000000000e+00 0.000000000000000e+00

0.000000000000000e+00 0.000000000000000e+00 0.000000000000000e+00
0.000000000000000e+00 0.000000000000000e+00 0.000000000000000e+00
0.000000000000000e+00 0.000000000000000e+00 0.000000000000000e+00

0.000000000000000e+00 0.000000000000000e+00 0.000000000000000e+00
0.000000000000000e+00 0.000000000000000e+00 0.000000000000000e+00
0.000000000000000e+00 0.000000000000000e+00 0.000000000000000e+00

0.000000000000000e+00 0.000000000000000e+00 0.000000000000000e+00
0.000000000000000e+00 0.000000000000000e+00 0.000000000000000e+00
0.000000000000000e+00 0.000000000000000e+00 0.000000000000000e+00

0.000000000000000e+00 0.000000000000000e+00 0.000000000000000e+00
0.000000000000000e+00 0.000000000000000e+00 0.000000000000000e+00
0.000000000000000e+00 0.000000000000000e+00 0.000000000000000e+00

0.000000000000000e+00 0.000000000000000e+00 0.000000000000000e+00
0.000000000000000e+00 0.000000000000000e+00 0.000000000000000e+00
0.000000000000000e+00 0.000000000000000e+00 0.000000000000000e+00

0.000000000000000e+00 0.000000000000000e+00 0.000000000000000e+00
0.000000000000000e+00 0.000000000000000e+00 0.000000000000000e+00
0.000000000000000e+00 0.000000000000000e+00 0.000000000000000e+00

0.000000000000000e+00 0.000000000000000e+00 0.000000000000000e+00
0.000000000000000e+00 0.000000000000000e+00 0.000000000000000e+00
0.000000000000000e+00 0.000000000000000e+00 0.000000000000000e+00

0.000000000000000e+00 0.000000000000000e+00 0.000000000000000e+00
0.000000000000000e+00 0.000000000000000e+00 0.000000000000000e+00
0.000000000000000e+00 0.000000000000000e+00 0.000000000000000e+00

0.000000000000000e+00 0.000000000000000e+00 0.000000000000000e+00
0.000000000000000e+00 0.000000000000000e+00 0.000000000000000e+00
0.000000000000000e+00 0.000000000000000e+00 0.000000000000000e+00

0.000000000000000e+00 0.000000000000000e+00 0.000000000000000e+00
0.000000000000000e+00 0.000000000000000e+00 0.000000000000000e+00
0.000000000000000e+00 0.000000000000000e+00 0.000000000000000e+00

0.000000000000000e+00 0.000000000000000e+00 0.000000000000000e+00
0.000000000000000e+00 0.000000000000000e+00 0.000000000000000e+00
0.000000000000000e+00 0.000000000000000e+00 0.000000000000000e+00

0.000000000000000e+00 0.000000000000000e+00 0.000000000000000e+00
0.000000000000000e+00 0.000000000000000e+00 0.000000000000000e+00
0.000000000000000e+00 0.000000000000000e+00 0.000000000000000e+00

0.000000000000000e+00 0.000000000000000e+00 0.000000000000000e+00
0.000000000000000e+00 0.000000000000000e+00 0.000000000000000e+00
0.000000000000000e+00 0.000000000000000e+00 0.000000000000000e+00

0.000000000000000e+00 0.000000000000000e+00 0.000000000000000e+00
0.000000000000000e+00 0.000000000000000e+00 0.000000000000000e+00
0.000000000000000e+00 0.000000000000000e+00 0.000000000000000e+00

0.000000000000000e+00 0.000000000000000e+00 0.000000000000000e+00
0.000000000000000e+00 0.000000000000000e+00 0.000000000000000e+00
0.000000000000000e+00 0.000000000000000e+00 0.000000000000000e+00

0.000000000000000e+00 0.000000000000000e+00 0.000000000000000e+00
0.000000000000000e+00 0.000000000000000e+00 0.000000000000000e+00
0.000000000000000e+00 0.000000000000000e+00 0.000000000000000e+00

0.000000000000000e+00 0.000000000000000e+00 0.000000000000000e+00
0.000000000000000e+00 0.000000000000000e+00 0.000000000000000e+00
0.000000000000000e+00 0.000000000000000e+00 0.000000000000000e+00

0.000000000000000e+00 0.000000000000000e+00 0.000000000000000e+00
0.000000000000000e+00 0.000000000000000e+00 0.000000000000000e+00
0.000000000000000e+00 0.000000000000000e+00 0.000000000000000e+00

0.000000000000000e+00 0.000000000000000e+00 0.000000000000000e+00
0.000000000000000e+00 0.000000000000000e+00 0.000000000000000e+00
0.000000000000000e+00 0.000000000000000e+00 0.000000000000000e+00

0.000000000000000e+00 0.000000000000000e+00 0.000000000000000e+00
0.000000000000000e+00 0.000000000000000e+00 0.000000000000000e+00
0.000000000000000e+00 0.000000000000000e+00 0.000000000000000e+00

0.000000000000000e+00 0.000000000000000e+00 0.000000000000000e+00
0.000000000000000e+00 0.000000000000000e+00 0.000000000000000e+00
0.000000000000000e+00 0.000000000000000e+00 0.000000000000000e+00

0.000000000000000e+00 0.000000000000000e+00 0.000000000000000e+00
0.000000000000000e+00 0.000000000000000e+00 0.000000000000000e+00
0.000000000000000e+00 0.000000000000000e+00 0.000000000000000e+00

0.000000000000000e+00 0.000000000000000e+00 0.000000000000000e+00
0.000000000000000e+00 0.000000000000000e+00 0.000000000000000e+00
0.000000000000000e+00 0.000000000000000e+00 0.000000000000000e+00

0.000000000000000e+00 0.000000000000000e+00 0.000000000000000e+00
0.000000000000000e+00 0.000000000000000e+00 0.000000000000000e+00
0.000000000000000e+00 0.000000000000000e+00 0.000000000000000e+00

0.000000000000000e+00 0.000000000000000e+00 0.000000000000000e+00
0.000000000000000e+00 0.000000000000000e+00 0.000000000000000e+00
0.000000000000000e+00 0.000000000000000e+00 0.000000000000000e+00

0.000000000000000e+00 0.000000000000000e+00 0.000000000000000e+00
0.000000000000000e+00 0.000000000000000e+00 0.000000000000000e+00
0.000000000000000e+00 0.000000000000000e+00 0.000000000000000e+00

0.000000000000000e+00 0.000000000000000e+00 0.000000000000000e+00
0.000000000000000e+00 0.000000000000000e+00 0.000000000000000e+00
0.000000000000000e+00 0.000000000000000e+00 0.000000000000000e+00

0.000000000000000e+00 0.000000000000000e+00 0.000000000000000e+00
0.000000000000000e+00 0.000000000000000e+00 0.000000000000000e+00
0.000000000000000e+00 0.000000000000000e+00 0.000000000000000e+00

0.000000000000000e+00 0.000000000000000e+00 0.000000000000000e+00
0.000000000000000e+00 0.000000000000000e+00 0.000000000000000e+00
0.000000000000000e+00 0.000000000000000e+00 0.000000000000000e+00

0.000000000000000e+00 0.000000000000000e+00 0.000000000000000e+00
0.000000000000000e+00 0.000000000000000e+00 0.000000000000000e+00
0.000000000000000e+00 0.000000000000000e+00 0.000000000000000e+00

0.000000000000000e+00 0.000000000000000e+00 0.000000000000000e+00
0.000000000000000e+00 0.000000000000000e+00 0.000000000000000e+00
0.000000000000000e+00 0.000000000000000e+00 0.000000000000000e+00

0.000000000000000e+00 0.000000000000000e+00 0.000000000000000e+00
0.000000000000000e+00 0.000000000000000e+00 0.000000000000000e+00
0.000000000000000e+00 0.000000000000000e+00 0.000000000000000e+00

0.000000000000000e+00 0.000000000000000e+00 0.000000000000000e+00
0.000000000000000e+00 0.000000000000000e+00 0.000000000000000e+00
0.000000000000000e+00 0.000000000000000e+00 0.000000000000000e+00

0.000000000000000e+00 0.000000000000000e+00 0.000000000000000e+00
0.000000000000000e+00 0.000000000000000e+00 0.000000000000000e+00
0.000000000000000e+00 0.000000000000000e+00 0.000000000000000e+00

0.000000000000000e+00 0.000000000000000e+00 0.000000000000000e+00
0.000000000000000e+00 0.000000000000000e+00 0.000000000000000e+00
0.000000000000000e+00 0.000000000000000e+00 0.000000000000000e+00

0.000000000000000e+00 0.000000000000000e+00 0.000000000000000e+00
0.000000000000000e+00 0.000000000000000e+00 0.000000000000000e+00
0.000000000000000e+00 0.000000000000000e+00 0.000000000000000e+00

0.000000000000000e+00 0.000000000000000e+00 0.000000000000000e+00
0.000000000000000e+00 0.000000000000000e+00 0.000000000000000e+00
0.000000000000000e+00 0.000000000000000e+00 0.000000000000000e+00

0.000000000000000e+00 0.000000000000000e+00 0.000000000000000e+00
0.000000000000000e+00 0.000000000000000e+00 0.000000000000000e+00
0.000000000000000e+00 0.000000000000000e+00 0.000000000000000e+00

0.000000000000000e+00 0.000000000000000e+00 0.000000000000000e+00
0.000000000000000e+00 0.000000000000000e+00 0.000000000000000e+00
0.000000000000000e+00 0.000000000000000e+00 0.000000000000000e+00

0.000000000000000e+00 0.000000000000000e+00 0.000000000000000e+00
0.000000000000000e+00 0.000000000000000e+00 0.000000000000000e+00
0.000000000000000e+00 0.000000000000000e+00 0.000000000000000e+00

0.000000000000000e+00 0.000000000000000e+00 0.000000000000000e+00
0.000000000000000e+00 0.000000000000000e+00 0.000000000000000e+00
0.000000000000000e+00 0.000000000000000e+00 0.000000000000000e+00

0.000000000000000e+00 0.000000000000000e+00 0.000000000000000e+00
0.000000000000000e+00 0.000000000000000e+00 0.000000000000000e+00
0.000000000000000e+00 0.000000000000000e+00 0.000000000000000e+00

0.000000000000000e+00 0.000000000000000e+00 0.000000000000000e+00
0.000000000000000e+00 0.000000000000000e+00 0.000000000000000e+00
0.000000000000000e+00 0.000000000000000e+00 0.000000000000000e+00

0.000000000000000e+00 0.000000000000000e+00 0.000000000000000e+00
0.000000000000000e+00 0.000000000000000e+00 0.000000000000000e+00
0.000000000000000e+00 0.000000000000000e+00 0.000000000000000e+00

0.000000000000000e+00 0.000000000000000e+00 0.000000000000000e+00
0.000000000000000e+00 0.000000000000000e+00 0.000000000000000e+00
0.000000000000000e+00 0.000000000000000e+00 0.000000000000000e+00

0.000000000000000e+00 0.000000000000000e+00 0.000000000000000e+00
0.000000000000000e+00 0.000000000000000e+00 0.000000000000000e+00
0.000000000000000e+00 0.000000000000000e+00 0.000000000000000e+00

0.000000000000000e+00 0.000000000000000e+00 0.000000000000000e+00
0.000000000000000e+00 0.000000000000000e+00 0.000000000000000e+00
0.000000000000000e+00 0.000000000000000e+00 0.000000000000000e+00

0.000000000000000e+00 0.000000000000000e+00 0.000000000000000e+00
0.000000000000000e+00 0.000000000000000e+00 0.000000000000000e+00
0.000000000000000e+00 0.000000000000000e+00 0.000000000000000e+00

0.000000000000000e+00 0.000000000000000e+00 0.000000000000000e+00
0.000000000000000e+00 0.000000000000000e+00 0.000000000000000e+00
0.000000000000000e+00 0.000000000000000e+00 0.000000000000000e+00

0.000000000000000e+00 0.000000000000000e+00 0.000000000000000e+00
0.000000000000000e+00 0.000000000000000e+00 0.000000000000000e+00
0.000000000000000e+00 0.000000000000000e+00 0.000000000000000e+00

0.000000000000000e+00 0.000000000000000e+00 0.000000000000000e+00
0.000000000000000e+00 0.000000000000000e+00 0.000000000000000e+00
0.000000000000000e+00 0.000000000000000e+00 0.000000000000000e+00

0.000000000000000e+00 0.000000000000000e+00 0.000000000000000e+00
0.000000000000000e+00 0.000000000000000e+00 0.000000000000000e+00
0.000000000000000e+00 0.000000000000000e+00 0.000000000000000e+00

0.000000000000000e+00 0.000000000000000e+00 0.000000000000000e+00
0.000000000000000e+00 0.000000000000000e+00 0.000000000000000e+00
0.000000000000000e+00 0.000000000000000e+00 0.000000000000000e+00

0.000000000000000e+00 0.000000000000000e+00 0.000000000000000e+00
0.000000000000000e+00 0.000000000000000e+00 0.000000000000000e+00
0.000000000000000e+00 0.000000000000000e+00 0.000000000000000e+00

0.000000000000000e+00 0.000000000000000e+00 0.000000000000000e+00
0.000000000000000e+00 0.000000000000000e+00 0.000000000000000e+00
0.000000000000000e+00 0.000000000000000e+00 0.000000000000000e+00

0.000000000000000e+00 0.000000000000000e+00 0.000000000000000e+00
0.000000000000000e+00 0.000000000000000e+00 0.000000000000000e+00
0.000000000000000e+00 0.000000000000000e+00 0.000000000000000e+00

0.000000000000000e+00 0.000000000000000e+00 0.000000000000000e+00
0.000000000000000e+00 0.000000000000000e+00 0.000000000000000e+00
0.000000000000000e+00 0.000000000000000e+00 0.000000000000000e+00

0.000000000000000e+00 0.000000000000000e+00 0.000000000000000e+00
0.000000000000000e+00 0.000000000000000e+00 0.000000000000000e+00
0.000000000000000e+00 0.000000000000000e+00 0.000000000000000e+00

0.000000000000000e+00 0.000000000000000e+00 0.000000000000000e+00
0.000000000000000e+00 0.000000000000000e+00 0.000000000000000e+00
0.000000000000000e+00 0.000000000000000e+00 0.000000000000000e+00

0.000000000000000e+00 0.000000000000000e+00 0.000000000000000e+00
0.000000000000000e+00 0.000000000000000e+00 0.000000000000000e+00
0.000000000000000e+00 0.000000000000000e+00 0.000000000000000e+00

0.000000000000000e+00 0.000000000000000e+00 0.000000000000000e+00
0.000000000000000e+00 0.000000000000000e+00 0.000000000000000e+00
0.000000000000000e+00 0.000000000000000e+00 0.000000000000000e+00

0.000000000000000e+00 0.000000000000000e+00 0.000000000000000e+00
0.000000000000000e+00 0.000000000000000e+00 0.000000000000000e+00
0.000000000000000e+00 0.000000000000000e+00 0.000000000000000e+00

0.000000000000000e+00 0.000000000000000e+00 0.000000000000000e+00
0.000000000000000e+00 0.000000000000000e+00 0.000000000000000e+00
0.000000000000000e+00 0.000000000000000e+00 0.000000000000000e+00

0.000000000000000e+00 0.000000000000000e+00 0.000000000000000e+00
0.000000000000000e+00 0.000000000000000e+00 0.000000000000000e+00
0.000000000000000e+00 0.000000000000000e+00 0.000000000000000e+00

0.000000000000000e+00 0.000000000000000e+00 0.000000000000000e+00
0.000000000000000e+00 0.000000000000000e+00 0.000000000000000e+00
0.000000000000000e+00 0.000000000000000e+00 0.000000000000000e+00

0.000000000000000e+00 0.000000000000000e+00 0.000000000000000e+00
0.000000000000000e+00 0.000000000000000e+00 0.000000000000000e+00
0.000000000000000e+00 0.000000000000000e+00 0.000000000000000e+00

0.000000000000000e+00 0.000000000000000e+00 0.000000000000000e+00
0.000000000000000e+00 0.000000000000000e+00 0.000000000000000e+00
0.000000000000000e+00 0.000000000000000e+00 0.000000000000000e+00

0.000000000000000e+00 0.000000000000000e+00 0.000000000000000e+00
0.000000000000000e+00 0.000000000000000e+00 0.000000000000000e+00
0.000000000000000e+00 0.000000000000000e+00 0.000000000000000e+00

0.000000000000000e+00 0.000000000000000e+00 0.000000000000000e+00
0.000000000000000e+00 0.000000000000000e+00 0.000000000000000e+00
0.000000000000000e+00 0.000000000000000e+00 0.000000000000000e+00

0.000000000000000e+00 0.000000000000000e+00 0.000000000000000e+00
0.000000000000000e+00 0.000000000000000e+00 0.000000000000000e+00
0.000000000000000e+00 0.000000000000000e+00 0.000000000000000e+00

0.000000000000000e+00 0.000000000000000e+00 0.000000000000000e+00
0.000000000000000e+00 0.000000000000000e+00 0.000000000000000e+00
0.000000000000000e+00 0.000000000000000e+00 0.000000000000000e+00

0.000000000000000e+00 0.000000000000000e+00 0.000000000000000e+00
0.000000000000000e+00 0.000000000000000e+00 0.000000000000000e+00
0.000000000000000e+00 0.000000000000000e+00 0.000000000000000e+00

0.000000000000000e+00 0.000000000000000e+00 0.000000000000000e+00
0.000000000000000e+00 0.000000000000000e+00 0.000000000000000e+00
0.000000000000000e+00 0.000000000000000e+00 0.000000000000000e+00

0.000000000000000e+00 0.000000000000000e+00 0.000000000000000e+00
0.000000000000000e+00 0.000000000000000e+00 0.000000000000000e+00
0.000000000000000e+00 0.000000000000000e+00 0.000000000000000e+00

0.000000000000000e+00 0.000000000000000e+00 0.000000000000000e+00
0.000000000000000e+00 0.000000000000000e+00 0.000000000000000e+00
0.000000000000000e+00 0.000000000000000e+00 0.000000000000000e+00

0.000000000000000e+00 0.000000000000000e+00 0.000000000000000e+00
0.000000000000000e+00 0.000000000000000e+00 0.000000000000000e+00
0.000000000000000e+00 0.000000000000000e+00 0.000000000000000e+00

0.000000000000000e+00 0.000000000000000e+00 0.000000000000000e+00
0.000000000000000e+00 0.000000000000000e+00 0.000000000000000e+00
0.000000000000000e+00 0.000000000000000e+00 0.000000000000000e+00

0.000000000000000e+00 0.000000000000000e+00 0.000000000000000e+00
0.000000000000000e+00 0.000000000000000e+00 0.000000000000000e+00
0.000000000000000e+00 0.000000000000000e+00 0.000000000000000e+00

0.000000000000000e+00 0.000000000000000e+00 0.000000000000000e+00
0.000000000000000e+00 0.000000000000000e+00 0.000000000000000e+00
0.000000000000000e+00 0.000000000000000e+00 0.000000000000000e+00

0.000000000000000e+00 0.000000000000000e+00 0.000000000000000e+00
0.000000000000000e+00 0.000000000000000e+00 0.000000000000000e+00
0.000000000000000e+00 0.000000000000000e+00 0.000000000000000e+00

0.000000000000000e+00 0.000000000000000e+00 0.000000000000000e+00
0.000000000000000e+00 0.000000000000000e+00 0.000000000000000e+00
0.000000000000000e+00 0.000000000000000e+00 0.000000000000000e+00

0.000000000000000e+00 0.000000000000000e+00 0.000000000000000e+00
0.000000000000000e+00 0.000000000000000e+00 0.000000000000000e+00
0.000000000000000e+00 0.000000000000000e+00 0.000000000000000e+00

0.000000000000000e+00 0.000000000000000e+00 0.000000000000000e+00
0.000000000000000e+00 0.000000000000000e+00 0.000000000000000e+00
0.000000000000000e+00 0.000000000000000e+00 0.000000000000000e+00

0.000000000000000e+00 0.000000000000000e+00 0.000000000000000e+00
0.000000000000000e+00 0.000000000000000e+00 0.000000000000000e+00
0.000000000000000e+00 0.000000000000000e+00 0.000000000000000e+00

0.000000000000000e+00 0.000000000000000e+00 0.000000000000000e+00
0.000000000000000e+00 0.000000000000000e+00 0.000000000000000e+00
0.000000000000000e+00 0.000000000000000e+00 0.000000000000000e+00

0.000000000000000e+00 0.000000000000000e+00 0.000000000000000e+00
0.000000000000000e+00 0.000000000000000e+00 0.000000000000000e+00
0.000000000000000e+00 0.000000000000000e+00 0.000000000000000e+00

0.000000000000000e+00 0.000000000000000e+00 0.000000000000000e+00
0.000000000000000e+00 0.000000000000000e+00 0.000000000000000e+00
0.000000000000000e+00 0.000000000000000e+00 0.000000000000000e+00

0.000000000000000e+00 0.000000000000000e+00 0.000000000000000e+00
0.000000000000000e+00 0.000000000000000e+00 0.000000000000000e+00
0.000000000000000e+00 0.000000000000000e+00 0.000000000000000e+00

0.000000000000000e+00 0.000000000000000e+00 0.000000000000000e+00
0.000000000000000e+00 0.000000000000000e+00 0.000000000000000e+00
0.000000000000000e+00 0.000000000000000e+00 0.000000000000000e+00

0.000000000000000e+00 0.000000000000000e+00 0.000000000000000e+00
0.000000000000000e+00 0.000000000000000e+00 0.000000000000000e+00
0.000000000000000e+00 0.000000000000000e+00 0.000000000000000e+00

0.000000000000000e+00 0.000000000000000e+00 0.000000000000000e+00
0.000000000000000e+00 0.000000000000000e+00 0.000000000000000e+00
0.000000000000000e+00 0.000000000000000e+00 0.000000000000000e+00

0.000000000000000e+00 0.000000000000000e+00 0.000000000000000e+00
0.000000000000000e+00 0.000000000000000e+00 0.000000000000000e+00
0.000000000000000e+00 0.000000000000000e+00 0.000000000000000e+00

0.000000000000000e+00 0.000000000000000e+00 0.000000000000000e+00
0.000000000000000e+00 0.000000000000000e+00 0.000000000000000e+00
0.000000000000000e+00 0.000000000000000e+00 0.000000000000000e+00

0.000000000000000e+00 0.000000000000000e+00 0.000000000000000e+00
0.000000000000000e+00 0.000000000000000e+00 0.000000000000000e+00
0.000000000000000e+00 0.000000000000000e+00 0.000000000000000e+00

0.000000000000000e+00 0.000000000000000e+00 0.000000000000000e+00
0.000000000000000e+00 0.000000000000000e+00 0.000000000000000e+00
0.000000000000000e+00 0.000000000000000e+00 0.000000000000000e+00

0.000000000000000e+00 0.000000000000000e+00 0.000000000000000e+00
0.000000000000000e+00 0.000000000000000e+00 0.000000000000000e+00
0.000000000000000e+00 0.000000000000000e+00 0.000000000000000e+00

0.000000000000000e+00 0.000000000000000e+00 0.000000000000000e+00
0.000000000000000e+00 0.000000000000000e+00 0.000000000000000e+00
0.000000000000000e+00 0.000000000000000e+00 0.000000000000000e+00

0.000000000000000e+00 0.000000000000000e+00 0.000000000000000e+00
0.000000000000000e+00 0.000000000000000e+00 0.000000000000000e+00
0.000000000000000e+00 0.000000000000000e+00 0.000000000000000e+00

0.000000000000000e+00 0.000000000000000e+00 0.000000000000000e+00
0.000000000000000e+00 0.000000000000000e+00 0.000000000000000e+00
0.000000000000000e+00 0.000000000000000e+00 0.000000000000000e+00

0.000000000000000e+00 0.000000000000000e+00 0.000000000000000e+00
0.000000000000000e+00 0.000000000000000e+00 0.000000000000000e+00
0.000000000000000e+00 0.000000000000000e+00 0.000000000000000e+00

0.000000000000000e+00 0.000000000000000e+00 0.000000000000000e+00
0.000000000000000e+00 0.000000000000000e+00 0.000000000000000e+00
0.000000000000000e+00 0.000000000000000e+00 0.000000000000000e+00

0.000000000000000e+00 0.000000000000000e+00 0.000000000000000e+00
0.000000000000000e+00 0.000000000000000e+00 0.000000000000000e+00
0.000000000000000e+00 0.000000000000000e+00 0.000000000000000e+00

0.000000000000000e+00 0.000000000000000e+00 0.000000000000000e+00
0.000000000000000e+00 0.000000000000000e+00 0.000000000000000e+00
0.000000000000000e+00 0.000000000000000e+00 0.000000000000000e+00

0.000000000000000e+00 0.000000000000000e+00 0.000000000000000e+00
0.000000000000000e+00 0.000000000000000e+00 0.000000000000000e+00
0.000000000000000e+00 0.000000000000000e+00 0.000000000000000e+00

0.000000000000000e+00 0.000000000000000e+00 0.000000000000000e+00
0.000000000000000e+00 0.000000000000000e+00 0.000000000000000e+00
0.000000000000000e+00 0.000000000000000e+00 0.000000000000000e+00

0.000000000000000e+00 0.000000000000000e+00 0.000000000000000e+00
0.000000000000000e+00 0.000000000000000e+00 0.000000000000000e+00
0.000000000000000e+00 0.000000000000000e+00 0.000000000000000e+00

0.000000000000000e+00 0.000000000000000e+00 0.000000000000000e+00
0.000000000000000e+00 0.000000000000000e+00 0.000000000000000e+00
0.000000000000000e+00 0.000000000000000e+00 0.000000000000000e+00

0.000000000000000e+00 0.000000000000000e+00 0.000000000000000e+00
0.000000000000000e+00 0.000000000000000e+00 0.000000000000000e+00
0.000000000000000e+00 0.000000000000000e+00 0.000000000000000e+00

0.000000000000000e+00 0.000000000000000e+00 0.000000000000000e+00
0.000000000000000e+00 0.000000000000000e+00 0.000000000000000e+00
0.000000000000000e+00 0.000000000000000e+00 0.000000000000000e+00

0.000000000000000e+00 0.000000000000000e+00 0.000000000000000e+00
0.000000000000000e+00 0.000000000000000e+00 0.000000000000000e+00
0.000000000000000e+00 0.000000000000000e+00 0.000000000000000e+00

0.000000000000000e+00 0.000000000000000e+00 0.000000000000000e+00
0.000000000000000e+00 0.000000000000000e+00 0.000000000000000e+00
0.000000000000000e+00 0.000000000000000e+00 0.000000000000000e+00

0.000000000000000e+00 0.000000000000000e+00 0.000000000000000e+00
0.000000000000000e+00 0.000000000000000e+00 0.000000000000000e+00
0.000000000000000e+00 0.000000000000000e+00 0.000000000000000e+00

0.000000000000000e+00 0.000000000000000e+00 0.000000000000000e+00
0.000000000000000e+00 0.000000000000000e+00 0.000000000000000e+00
0.000000000000000e+00 0.000000000000000e+00 0.000000000000000e+00

0.000000000000000e+00 0.000000000000000e+00 0.000000000000000e+00
0.000000000000000e+00 0.000000000000000e+00 0.000000000000000e+00
0.000000000000000e+00 0.000000000000000e+00 0.000000000000000e+00

0.000000000000000e+00 0.000000000000000e+00 0.000000000000000e+00
0.000000000000000e+00 0.000000000000000e+00 0.000000000000000e+00
0.000000000000000e+00 0.000000000000000e+00 0.000000000000000e+00

-1.070593913280524e-02 -1.353721138193046e-01  4.800639481563456e+00
-1.353721138193046e-01 -3.321086216194807e-03  5.204246034430728e-02
 4.800639481563456e+00  5.204246034430728e-02 -6.801360289066772e-03

-1.054031267433047e-02 -1.282114050373622e-01  4.800555550184124e+00
-1.282114050373622e-01 -2.100966605042058e-03 -3.755776645734783e-02
 4.800555550184124e+00 -3.755776645734783e-02 -7.306025779847568e-03

-6.852243829154532e-03 -1.025602494606379e-01  4.800662021236970e+00
-1.025602494606379e-01  5.487128163661503e-04 -1.476926004106061e-01
 4.800662021236970e+00 -1.476926004106061e-01 -6.689934131794032e-03

-7.253654611075815e-03 -9.833611168604242e-02  4.800648404927958e+00
-9.833611168604242e-02  1.015995388995289e-03 -2.347795319271032e-01
 4.800648404927958e+00 -2.347795319271032e-01 -7.262200365081745e-03

-1.091796622856040e-02 -1.073780368687191e-01  4.800691668218696e+00
-1.073780368687191e-01 -4.599550752267683e-04 -2.699929849461665e-01
 4.800691668218696e+00 -2.699929849461665e-01 -8.790431450380141e-03

-1.343793952621773e-02 -6.264941108967695e-02  4.800581539942243e+00
-6.264941108967695e-02 -1.675303315987397e-03 -2.714346940034727e-01
 4.800581539942243e+00 -2.714346940034727e-01 -9.311276872719059e-03

-1.443499455033512e-02 -4.535392319633587e-02  4.799455414102177e+00
-4.535392319633587e-02 -2.463860518221047e-03 -2.490488711118311e-01
 4.799455414102177e+00 -2.490488711118311e-01 -8.093115342309254e-03

-9.681883885062676e-03 -6.695747935995466e-02  4.797301773920703e+00
-6.695747935995466e-02 -1.587665509526673e-03 -2.088623156927165e-01
 4.797301773920703e+00 -2.088623156927165e-01 -3.456955828153807e-03

 1.518732750456984e-02 -6.193868426250101e-02  4.796568296775959e+00
-6.193868426250101e-02  5.994489585529546e-03 -1.707577457106393e-01
 4.796568296775959e+00 -1.707577457106393e-01  9.037307919607005e-03

 2.675825439355506e-02 -4.548659667993774e-02  4.798852117230077e+00
-4.548659667993774e-02  9.719013165512855e-03 -1.411389021376625e-01
 4.798852117230077e+00 -1.411389021376625e-01  1.255063175451845e-02

 1.221672569186963e-02 -3.258406346200555e-02  4.803596704102624e+00
-3.258406346200555e-02  5.357034458445833e-03 -1.162304919633149e-01
 4.803596704102624e+00 -1.162304919633149e-01  5.577502079600412e-04

-1.896355934075263e-02 -7.988952791587266e-02  4.807796742946953e+00
-7.988952791587266e-02 -4.603648552673670e-03 -8.926140083801351e-02
 4.807796742946953e+00 -8.926140083801351e-02 -1.972901058895537e-02

-2.008584885597348e-02 -1.026503716460504e-01  4.808452652506990e+00
-1.026503716460504e-01 -5.165712682248706e-03 -7.241893436711874e-02
 4.808452652506990e+00 -7.241893436711874e-02 -2.353006369875072e-02

 7.520261903511155e-03 -9.235074305987603e-02  4.807408170719699e+00
-9.235074305987603e-02  4.081605873947514e-03 -6.304471552715132e-02
 4.807408170719699e+00 -6.304471552715132e-02 -9.580206404813605e-03

-6.311850277508958e-03 -1.298681771835949e-01  4.804283626183994e+00
-1.298681771835949e-01 -3.448273896867665e-04 -5.117116616111664e-02
 4.804283626183994e+00 -5.117116616111664e-02 -1.067128306365109e-02

-2.763210473149402e-02 -1.817634464995976e-01  4.800504955633931e+00
-1.817634464995976e-01 -7.218911181024274e-03 -3.917398777210192e-02
 4.800504955633931e+00 -3.917398777210192e-02 -1.403963035855260e-02

-3.580595683503707e-02 -2.197529976176419e-01  4.796103517974420e+00
-2.197529976176419e-01 -9.934502295683403e-03 -3.187976917394227e-02
 4.796103517974420e+00 -3.187976917394227e-02 -1.075708035684035e-02

 2.214885933626814e-03 -1.845675570737843e-01  4.793630386808378e+00
-1.845675570737843e-01  1.882730936714602e-03 -3.369244287233374e-02
 4.793630386808378e+00 -3.369244287233374e-02  8.485081150327978e-03

-5.199595635510625e-03 -2.280140030994635e-01  4.792973868534863e+00
-2.280140030994635e-01 -2.075356676025931e-03 -2.301629997093896e-02
 4.792973868534863e+00 -2.301629997093896e-02  1.889025285069834e-04

-3.822783284002913e-02 -3.109281431737549e-01  4.799568995169182e+00
-3.109281431737549e-01 -1.209280244595655e-02  3.833612065884661e-03
 4.799568995169182e+00  3.833612065884661e-03 -2.170269086976913e-02

-3.273842812314336e-02 -2.674584070085457e-01  4.805822595965594e+00
-2.674584070085457e-01 -9.305093127718125e-03  1.038896762995994e-02
 4.805822595965594e+00  1.038896762995994e-02 -2.397467763458944e-02

-9.690091123350385e-03 -2.646968988062345e-01  4.809392431844678e+00
-2.646968988062345e-01 -9.815865912252372e-04  2.757448531788599e-02
 4.809392431844678e+00  2.757448531788599e-02 -1.450669521764458e-02

 1.440129051038988e-02 -2.948047514514608e-01  4.811002729311432e+00
-2.948047514514608e-01  7.351294793551781e-03  5.929958150202301e-02
 4.811002729311432e+00  5.929958150202301e-02 -3.271754008338099e-03

 4.532786176409542e-03 -2.797667343843372e-01  4.810513904585473e+00
-2.797667343843372e-01  5.180484340983998e-03  7.264298274648917e-02
 4.810513904585473e+00  7.264298274648917e-02 -3.103933489596865e-03

 2.946014638455498e-03 -2.829381175274215e-01  4.807535872593286e+00
-2.829381175274215e-01  4.124678955417477e-03  8.148361447585480e-02
 4.807535872593286e+00  8.148361447585480e-02 -7.660602828082376e-04

 1.178304227053865e-02 -3.039571146231468e-01  4.801860831402353e+00
-3.039571146231468e-01  4.677318915219637e-03  8.651660014422971e-02
 4.801860831402353e+00  8.651660014422971e-02  2.564912975896876e-03

 1.294153532483559e-02 -2.823079410436138e-01  4.797728842125865e+00
-2.823079410436138e-01  3.464611578684425e-03  7.408764039531930e-02
 4.797728842125865e+00  7.408764039531930e-02  1.933057209993976e-03

 8.815669740637121e-03 -2.947448138149247e-01  4.797926012931842e+00
-2.947448138149247e-01  2.028382301212848e-03  7.551495404163489e-02
 4.797926012931842e+00  7.551495404163489e-02  1.246024530861596e-04

-2.548002971463649e-03 -3.398513210512274e-01  4.800133061511676e+00
-3.398513210512274e-01  2.601876581908941e-04  8.564657983009798e-02
 4.800133061511676e+00  8.564657983009798e-02 -9.725666622751819e-04

-1.088405901412082e-02 -2.603785019108971e-01  4.801490970801312e+00
-2.603785019108971e-01 -2.322582471379624e-04  6.031978906299470e-02
 4.801490970801312e+00  6.031978906299470e-02  2.568426294734175e-04

-1.284238388647631e-02 -2.307835647211005e-01  4.801004697449635e+00
-2.307835647211005e-01  1.528535139712711e-04  5.885617307282771e-02
 4.801004697449635e+00  5.885617307282771e-02  1.128636745148042e-03

-8.628408296449246e-03 -2.737337840914412e-01  4.800081355755864e+00
-2.737337840914412e-01  3.008739573515391e-04  8.720663381769558e-02
 4.800081355755864e+00  8.720663381769558e-02  9.358950405194102e-04

-1.247291027247286e-02 -2.458480130533689e-01  4.797758616892522e+00
-2.458480130533689e-01 -1.748251223824697e-03  9.737085230357212e-02
 4.797758616892522e+00  9.737085230357212e-02 -1.395277641381638e-03

-1.901689276643229e-02 -2.110135738894718e-01  4.795211839530618e+00
-2.110135738894718e-01 -4.113281228888611e-03  9.995657279415020e-02
 4.795211839530618e+00  9.995657279415020e-02 -4.964530995598613e-03

-2.236145217644046e-02 -1.934727346631889e-01  4.792565333850768e+00
-1.934727346631889e-01 -5.868304725081019e-03  1.083494302252127e-01
 4.792565333850768e+00  1.083494302252127e-01 -9.017696407927220e-03

-9.886723846966486e-04 -2.539175671371997e-01  4.796791297189046e+00
-2.539175671371997e-01 -2.987991774053839e-04  1.319264322940661e-01
 4.796791297189046e+00  1.319264322940661e-01 -9.027671383598482e-03

 2.712414259676994e-03 -2.704241541832618e-01  4.799517169088401e+00
-2.704241541832618e-01  2.526598681769163e-03  1.335676768089617e-01
 4.799517169088401e+00  1.335676768089617e-01 -8.007768202458325e-03

-1.583140499094793e-02 -2.242465912977548e-01  4.799030017017611e+00
-2.242465912977548e-01 -1.497129362950219e-03  1.071289655200748e-01
 4.799030017017611e+00  1.071289655200748e-01 -7.165763929082765e-03

-2.168289971730243e-02 -2.041291948358460e-01  4.801229382476421e+00
-2.041291948358460e-01 -2.774715433535331e-03  8.447735679476097e-02
 4.801229382476421e+00  8.447735679476097e-02 -3.795805887344432e-03

-1.164212206773500e-02 -2.484593036926760e-01  4.805249355506649e+00
-2.484593036926760e-01  3.226816652063320e-04  8.616713150373367e-02
 4.805249355506649e+00  8.616713150373367e-02 -4.236282005715443e-04

 5.402578559929840e-03 -3.212383053839769e-01  4.809491642194174e+00
-3.212383053839769e-01  4.803355409828094e-03  1.007177611917477e-01
 4.809491642194174e+00  1.007177611917477e-01  1.563294275751491e-03

 6.412522882848151e-03 -2.916051570783663e-01  4.807953117298942e+00
-2.916051570783663e-01  4.088361210069751e-03  9.460933728779720e-02
 4.807953117298942e+00  9.460933728779720e-02  1.287311623122770e-03

 9.216150892663665e-03 -3.074895547954429e-01  4.807821338715771e+00
-3.074895547954429e-01  4.314777532474143e-03  1.039196781327882e-01
 4.807821338715771e+00  1.039196781327882e-01  1.095431453003147e-03

 1.510903807308291e-02 -3.695882760515931e-01  4.809236482486001e+00
-3.695882760515931e-01  5.404397837485342e-03  1.276289566737061e-01
 4.809236482486001e+00  1.276289566737061e-01  1.215767728456329e-03

 1.118021018276085e-02 -3.467090519867692e-01  4.806476819952808e+00
-3.467090519867692e-01  3.679862535599074e-03  1.293905366693414e-01
 4.806476819952808e+00  1.293905366693414e-01  1.159001942455887e-03

 1.144662181256060e-02 -3.189104566523267e-01  4.805343192144093e+00
-3.189104566523267e-01  2.932193755039880e-03  1.211389832268947e-01
 4.805343192144093e+00  1.211389832268947e-01  9.946127105187207e-04

 1.565392373971867e-02 -2.727613551552946e-01  4.806447137314367e+00
-2.727613551552946e-01  3.569280281034631e-03  9.609738620873405e-02
 4.806447137314367e+00  9.609738620873405e-02 -1.191570419204891e-04

 1.439534326449092e-02 -1.764342380150452e-01  4.805890927950013e+00
-1.764342380150452e-01  3.455987806227045e-03  4.926396647798419e-02
 4.805890927950013e+00  4.926396647798419e-02 -1.860637484138896e-03


CELL_DATA 16
SCALARS dislocation_index int
LOOKUP_TABLE default
0
1
2
3
4
5
6
7
8
9
10
11
12
13
14
15

VECTORS burgers_vector_global double
 2.475882230000000e+00  1.827404920000000e-06 -1.163130910000000e-05
 2.475882230000000e+00  1.827404920000000e-06 -1.163130910000000e-05
 2.475882230000000e+00  1.827404920000000e-06 -1.163130910000000e-05
 2.475882230000000e+00  1.827404920000000e-06 -1.163130910000000e-05
 2.475882230000000e+00  1.827404920000000e-06 -1.163130910000000e-05
 2.475882230000000e+00  1.827404920000000e-06 -1.163130910000000e-05
 2.475882230000000e+00  1.827404920000000e-06 -1.163130910000000e-05
 2.475882230000000e+00  1.827404920000000e-06 -1.163130910000000e-05
 2.475882230000000e+00  1.827404920000000e-06 -1.163130910000000e-05
 2.475882230000000e+00  1.827404920000000e-06 -1.163130910000000e-05
 2.475882230000000e+00  1.827404920000000e-06 -1.163130910000000e-05
 2.475882230000000e+00  1.827404920000000e-06 -1.163130910000000e-05
 2.475882230000000e+00  1.827404920000000e-06 -1.163130910000000e-05
 2.475882230000000e+00  1.827404920000000e-06 -1.163130910000000e-05
 2.475882230000000e+00  1.827404920000000e-06 -1.163130910000000e-05
 2.475882230000000e+00  1.827404920000000e-06 -1.163130910000000e-05

VECTORS burgers_vector_local double
 3.954507996166263e-01  3.954543830699517e-01 -3.954500846694745e-01
 3.954507996166263e-01  3.954543830699517e-01 -3.954500846694745e-01
 3.954507996166263e-01  3.954543830699517e-01 -3.954500846694745e-01
 3.954507996166263e-01  3.954543830699517e-01 -3.954500846694745e-01
 3.954507996166263e-01  3.954543830699517e-01 -3.954500846694745e-01
 3.954507996166263e-01  3.954543830699517e-01 -3.954500846694745e-01
 3.954507996166263e-01  3.954543830699517e-01 -3.954500846694745e-01
 3.954507996166263e-01  3.954543830699517e-01 -3.954500846694745e-01
 3.954507996166263e-01  3.954543830699517e-01 -3.954500846694745e-01
 3.954507996166263e-01  3.954543830699517e-01 -3.954500846694745e-01
 3.954507996166263e-01  3.954543830699517e-01 -3.954500846694745e-01
 3.954507996166263e-01  3.954543830699517e-01 -3.954500846694745e-01
 3.954507996166263e-01  3.954543830699517e-01 -3.954500846694745e-01
 3.954507996166263e-01  3.954543830699517e-01 -3.954500846694745e-01
 3.954507996166263e-01  3.954543830699517e-01 -3.954500846694745e-01
 3.954507996166263e-01  3.954543830699517e-01 -3.954500846694745e-01
