# vtk DataFile Version 3.0
# Dislocation lines written by OVITO Pro 3.7.2 and Filtered with DXAcleanup.py
ASCII
DATASET UNSTRUCTURED_GRID
POINTS 166 double
409.77093889 123.19280134 237.61562159
409.20701666 123.16800907 241.42419666
408.04967688 123.15883666 246.74506968
406.17767186 123.14062232 251.81471182
404.65232899 123.2307819  256.52024388
403.84405642 123.13524912 261.04989422
403.0069592  123.01247247 265.86139123
400.62352951 123.17343541 271.33959994
396.76688246 123.26826747 277.48233837
392.67035725 123.20405231 283.63208301
388.04000294 123.23360944 288.95980298
382.55118304 123.19143148 293.18545301
377.80049635 123.17121029 296.9554583 
374.05109395 123.31341173 301.05120521
369.35544472 123.38370738 305.15189693
363.8905667  123.40411199 308.67089657
358.33839381 123.37206132 311.83048208
352.56605405 123.25120147 314.53846469
346.725051   123.13770623 316.62997235
341.02556843 123.06346613 318.25783221
335.60788249 123.22256945 319.63094513
329.87826884 123.39334894 321.45472449
323.82694518 123.30117458 323.82145613
317.94763004 123.26056549 325.83483177
312.18116202 123.4108304  326.96526451
306.34526274 123.64714123 328.06102509
300.39761241 123.57715129 329.80716664
294.2080318  123.19282183 331.10061017
287.94051064 123.21247381 331.56009747
281.68594947 123.57182643 331.96184628
275.08397118 123.75718597 332.27345878
268.35166613 123.75241448 332.34758387
261.73011843 123.72674397 332.39773958
255.09904715 123.82798902 332.47980868
248.67214309 123.80337389 332.36662282
242.64955318 123.51055976 331.8178421 
236.89083936 123.53831139 330.95851535
231.08638211 123.79771873 330.03509814
225.0229786  123.70894079 329.13931634
219.06565845 123.67651481 328.16179333
213.10486624 123.64094023 327.23750825
207.0438251  123.4433525  326.37697697
201.52704493 123.46917709 325.19761676
195.87774725 123.42381582 324.33296767
189.87165626 123.47996548 323.83789694
184.58891777 123.80304277 322.61770778
179.73171985 123.75980264 320.98046217
174.6944386  123.62295836 319.56587005
169.64149348 123.80452993 318.14008277
164.71349766 123.76937974 316.39843313
159.98352046 123.67404189 314.77361186
155.63287653 123.77868415 313.0851124 
151.16248142 123.80115204 310.90967981
146.01185305 123.81201194 309.20846708
141.34803496 123.82794288 307.26172946
138.08090692 123.9772215  304.07469845
135.00202913 124.08639477 301.01698151
130.98864672 123.99776952 298.51582818
127.05356293 124.09371256 295.71063294
123.56034292 124.18802336 292.38802332
120.26048372 124.157676   288.67314615
117.92193182 124.21178723 284.935867  
115.66747969 124.27430829 281.25294632
113.26044399 124.24741643 277.26263531
111.54967596 124.17954313 272.97806895
110.03212666 124.22246967 268.46115642
108.1630487  124.23754043 264.06967672
106.17172187 124.15655101 260.32677967
104.84169069 124.1861943  256.51476686
103.66432828 124.28376476 252.34503617
102.22929319 124.26593782 248.38586979
101.16761636 124.24064849 244.31974741
100.02920694 124.22638196 240.19083353
 99.25112932 124.18031623 235.97797779
 98.98794204 124.20892494 231.49407984
 97.95914807 124.27205164 227.34117639
 96.58359195 124.38944701 223.2172754 
 95.87360675 124.34712472 218.59263405
 95.93683031 124.20494742 214.01788108
 96.45806412 124.25247389 209.46905109
 96.83370271 124.28958325 204.76669337
 96.81033722 124.29738288 200.00770838
 96.46237203 124.31186113 195.15610486
 96.97029096 124.23558544 190.1045422 
 98.77776161 124.27048616 184.62646389
100.05070959 124.56766125 179.30457521
101.04086041 124.67813209 173.97628323
102.66812888 124.42469661 168.51638202
104.0350226  124.23900489 163.69577055
105.90451665 124.17454082 158.8923378 
108.8385507  124.23651713 153.25345125
111.8112694  124.32191013 147.27161286
115.37551014 124.17872422 141.88181544
119.9517271  124.03758956 136.89784835
124.77381744 124.18747914 131.83677683
129.82016557 124.41013924 127.37581411
135.12801974 124.31415733 123.75415787
140.48264374 124.12309218 120.40069636
146.17840277 124.1192386  117.57376589
152.35579214 124.16731202 115.29439839
158.52996908 124.12121836 112.9766985 
164.41278465 123.94595459 110.7318499 
170.19245505 123.91907016 108.51914748
176.0339044  124.12626862 106.16234531
181.8307443  124.1336787  104.18255436
187.18242048 123.93121105 102.42580292
192.4650612  123.89843968 100.70938538
198.53433424 124.13913816  99.66723641
204.62772424 124.20744299  98.87137841
210.38400493 123.87302904  98.09435763
216.37512445 123.80772585  97.32653572
222.19688049 123.92818969  96.18635923
228.12749397 123.77803893  95.47689165
234.66163104 123.62669242  95.42402909
241.5054226  123.59195427  95.45742535
247.87057576 123.62086772  95.33191898
253.5226073  123.58314925  95.20858402
259.23085753 123.68341268  95.68942167
265.01465284 123.92548499  96.55148641
270.82779048 123.67398867  97.21691268
277.03910125 123.50882694  98.00429138
283.54595733 123.94066449  98.75879878
289.72180329 123.94455722  99.1619486 
295.29196895 123.56406268  99.93038794
300.98591145 123.65007509 100.74990222
306.66295558 123.79936947 101.62508795
311.95912882 123.76206355 102.90403415
317.52724505 123.66219902 103.87954577
322.99587823 123.44407105 105.19137495
328.13247531 123.48490388 106.97904289
333.30155972 123.70093159 108.5953938 
338.52528769 123.76031907 110.27195772
343.49628488 123.61115191 112.14232189
347.64138994 123.3289034  114.29976054
351.18027205 123.26776822 116.74262741
354.83430597 123.45031746 119.29618321
359.02850493 123.45891026 121.60475007
363.41765314 123.3168773  123.72237295
367.29004335 123.25433481 126.21045238
370.84708716 123.2925249  128.98664881
374.41071756 123.42006143 131.86840305
377.20875868 123.35766392 135.07890822
379.88863574 123.1090286  138.36172974
383.34097049 123.08984803 141.43099049
386.54304419 123.16475407 144.38557237
389.37215159 123.17410705 147.64502598
392.14416076 123.17791738 151.56990297
394.37432616 123.06997722 155.66160789
395.90441901 123.05458953 159.58696127
397.1739357  123.06407572 163.66788342
399.09677182 122.98890517 167.52503273
401.47657886 123.0600193  170.9374176 
403.05316826 123.1827702  175.24449372
403.96914696 123.17135671 180.42425471
404.9438451  123.12792052 184.96363414
406.28607607 123.12308656 188.85120834
407.39469718 123.08912149 192.85929116
407.4811049  123.11764094 197.42720064
407.48747829 123.07524475 202.51211685
408.03179931 123.01688888 207.47432228
408.69857481 123.08842781 212.08584381
409.18539115 123.04325734 216.83210102
409.35649633 122.95068627 221.94299178
409.47052548 122.94562598 227.36893229
409.71531067 123.20658305 231.93156691
409.91804968 123.41512277 234.41296157

CELLS 1 168
167   0   1   2   3   4   5   6   7   8   9  10  11  12  13  14  15  16
  17  18  19  20  21  22  23  24  25  26  27  28  29  30  31  32  33  34
  35  36  37  38  39  40  41  42  43  44  45  46  47  48  49  50  51  52
  53  54  55  56  57  58  59  60  61  62  63  64  65  66  67  68  69  70
  71  72  73  74  75  76  77  78  79  80  81  82  83  84  85  86  87  88
  89  90  91  92  93  94  95  96  97  98  99 100 101 102 103 104 105 106
 107 108 109 110 111 112 113 114 115 116 117 118 119 120 121 122 123 124
 125 126 127 128 129 130 131 132 133 134 135 136 137 138 139 140 141 142
 143 144 145 146 147 148 149 150 151 152 153 154 155 156 157 158 159 160
 161 162 163 164 165   0

CELL_TYPES 1
4

CELL_DATA 1
SCALARS dislocation_index int
LOOKUP_TABLE default
0

VECTORS burgers_vector_local double
 0.5  0.5 -0.5

VECTORS burgers_vector_world double
 2.47588223e+00  1.82740492e-06 -1.16313091e-05
